
<svg class="looka-1j8o68f" width="502.32" height="118.21" viewBox="0 0 369.89 87.045" xmlns="http://www.w3.org/2000/svg"><defs><clipPath id="a"><path d="M2.367 4.92v6.142c.419-.314.887-.486 1.36-.486 1.412 0 2.827 1.4 2.84 4.2.006 1.273.158 2.54.289 3.804.048.395.092.792.144 1.187.053.408.38 2.72.428 3.057.144 1.018.32 2.322.49 3.338.093.567.202 1.13.304 1.695.117.569.229 1.138.352 1.706.28 1.289.516 2.216.813 3.502q.602 2.619 1.16 5.246c.612 2.895 1.04 5.823 1.48 8.748.524 3.486.208 1.305.703 4.808.553 4.006 1.066 8.017 1.73 12.007.336 1.768.627 3.551 1.115 5.286.267.903.533 1.806.77 2.718.037.173.099.338.156.504 1.518 4.39-1.917 6.392-4.165 3.926-1.55.745-3.636-.394-3.954-3.68a18 18 0 0 0-.075-.668 20 20 0 0 1-.17-2.088c-.025-.727-.023-1.454-.065-2.18-.039-.631-.086-1.264-.218-1.884-.055-.242-.068-.32-.14-.558-.03-.097-.065-.191-.094-.289-.01-.033-.025-.067-.023-.102 0-.009.018 0 .027-.001l.17.155c-.237-.238-.432-.424-.648-.693-.576-.72-.974-1.55-1.235-2.433-.067-.259-.144-.515-.203-.776-.397-1.774-.447-3.6-.589-5.405-.155-2.96-.233-5.924-.429-8.88-.174-2.169-.435-4.326-.634-6.492-.076-.863-.158-1.727-.329-2.578a29 29 0 0 0-.89-3.336 26 26 0 0 1-.47-1.971v59.063h23.625c.317-.933 1.158-1.899 2.651-2.633.6-.295 1.19-.608 1.778-.927.21-.708.65-1.475 1.38-2.25.489-.52.983-1.039 1.569-1.451.75-.507 1.531-.965 2.333-1.385q1.23-.677 2.49-1.294c.822-.418 1.625-.867 2.431-1.314.964-.54 1.932-1.073 2.883-1.637.756-.447 1.517-.885 2.276-1.326a56 56 0 0 0 2.696-1.682c1.223-.808 2.42-1.656 3.525-2.623 1.446-1.365 2.759-2.863 4.171-4.263.926-.886 1.804-1.802 3.02-2.302.403-.166.999-.254 1.517-.24.172.004.336.02.481.047.382.073.741.239 1.112.358.444.427 1.017.752 1.334 1.28.605 1.007.432 1.752.194 2.753-.03.125-.093.238-.143.356-.145.338-.191.421-.351.749-.35.684-.721 1.356-1.03 2.06-.164.434-.257.883-.404 1.323a8.7 8.7 0 0 1-1 2.072c-.432.615-.621.916-1.135 1.5-1.182 1.341-2.622 2.389-4.151 3.301-1.368.798-1.669 1.002-3.126 1.729-2.365 1.178-4.827 2.138-7.269 3.141-.363.157-.73.306-1.088.47-.248.112-.488.242-.732.36-.53.257-1.07.49-1.596.754-.999.47-2.006.92-2.997 1.406-.285.141-.947.467-1.232.617-.642.336-1.272.694-1.903 1.05H94.04V36.576c-.053.785-.104 1.57-.14 2.357-.062 1.404-.083 2.697-.116 4.103l-.051 2.163c-.145 4.956-.347 9.912-.761 14.854-.08.824-.146 1.65-.242 2.473-.224 1.93-.57 3.85-1.074 5.727-1.45 5.41-6.766 3.745-5.4-1.686.4-1.585.687-3.202.872-4.826.085-.742.142-1.487.213-2.23.4-4.817.597-9.647.738-14.477l.05-2.131c.033-1.432.054-2.733.118-4.163.086-1.92.238-3.835.377-5.751.23-2.99.366-5.984.464-8.98.032-1.908-.046-3.815-.128-5.72a162 162 0 0 1-.12-3.67c-.019-1.01-.024-2.02-.028-3.03a91 91 0 0 1 .019-3.016q.036-1.148.14-2.292c.041-.365.021-.192.06-.52.035-.3.09-.575.153-.84z" fill="red"/></clipPath><clipPath id="b"><path d="M1.494.316v5.81c.092-.013.184-.035.276-.035 1.412 0 2.828 1.4 2.84 4.201.007 1.273.159 2.54.29 3.804.048.396.092.793.144 1.188.053.408.38 2.72.428 3.058.144 1.018.32 2.322.49 3.338.094.567.203 1.13.304 1.696.118.568.23 1.138.353 1.705.28 1.29.516 2.217.812 3.504q.603 2.619 1.16 5.246c.613 2.896 1.04 5.825 1.48 8.75.525 3.487.21 1.306.704 4.81.553 4.007 1.066 8.019 1.73 12.01.337 1.768.628 3.551 1.116 5.286.267.904.533 1.806.77 2.718.037.173.099.338.157.505 1.518 4.392-1.919 6.393-4.167 3.927-1.55.745-3.637-.395-3.955-3.68a18 18 0 0 0-.075-.67 20 20 0 0 1-.17-2.088c-.025-.727-.023-1.454-.064-2.18-.04-.632-.087-1.264-.219-1.884-.055-.243-.067-.32-.14-.558-.029-.098-.065-.192-.094-.29-.01-.033-.025-.067-.023-.102 0-.009.018 0 .027-.001l.17.155c-.237-.238-.432-.424-.647-.693-.577-.72-.975-1.55-1.236-2.434-.067-.258-.144-.515-.203-.776-.397-1.774-.447-3.602-.59-5.406-.155-2.96-.232-5.925-.428-8.883-.174-2.168-.436-4.326-.634-6.492-.077-.864-.158-1.728-.33-2.579-.08-.394-.179-.783-.276-1.173v55.393h22.43c.173-1.064 1.031-2.232 2.768-3.085.6-.295 1.19-.609 1.778-.928.21-.708.65-1.476 1.38-2.25.489-.52.984-1.04 1.57-1.452a24 24 0 0 1 2.334-1.385 59 59 0 0 1 2.49-1.295c.821-.417 1.625-.866 2.431-1.314.965-.54 1.933-1.073 2.884-1.637.756-.447 1.517-.885 2.276-1.326a57 57 0 0 0 2.697-1.682c1.223-.81 2.42-1.657 3.525-2.624 1.447-1.365 2.76-2.864 4.173-4.264.926-.886 1.804-1.802 3.02-2.303.403-.166 1-.253 1.517-.24q.261.007.482.048c.382.073.741.239 1.112.358.444.427 1.017.751 1.334 1.28.605 1.007.432 1.753.195 2.754-.03.124-.094.238-.144.355-.145.338-.191.422-.351.75-.35.684-.721 1.356-1.03 2.06-.164.434-.258.884-.404 1.324a8.7 8.7 0 0 1-1.001 2.072c-.431.615-.62.917-1.135 1.5-1.182 1.342-2.622 2.39-4.152 3.303-1.368.797-1.669 1.002-3.127 1.728-2.365 1.18-4.828 2.139-7.27 3.143-.363.156-.73.305-1.089.469-.247.112-.487.242-.732.36-.53.257-1.07.49-1.596.754-.998.47-2.007.92-2.997 1.407-.286.141-.948.467-1.233.617-.915.479-1.804 1.006-2.71 1.503h56.488V64.699c-1.771 4.27-6.373 2.49-5.09-2.606.4-1.586.687-3.203.872-4.827.085-.742.142-1.487.213-2.23.4-4.818.597-9.65.738-14.48l.05-2.132c.033-1.432.054-2.733.118-4.164.086-1.92.238-3.836.377-5.753.231-2.99.367-5.985.464-8.982.032-1.908-.045-3.815-.128-5.72a162 162 0 0 1-.119-3.671c-.02-1.01-.025-2.021-.029-3.032a91 91 0 0 1 .019-3.016q.036-1.149.14-2.293c.041-.364.022-.192.06-.519q.061-.514.175-.958z" fill="red"/></clipPath></defs><path d="M87.927 4.92 4.165 13.922q.098.078.201.195c.293.393.486.825.558 1.314.138.623.27 1.248.338 1.883.034.344.07.648.086.994.043.858.03 1.72.085 2.578.092 1.913.216 3.825.49 5.722.277 1.89.618 3.774 1.08 5.629.072.134.13.261.225.47.237.582.354 1.191.428 1.81.462 1.52.934 3.037 1.407 4.554.367 1.183.745 2.363 1.066 3.56a45 45 0 0 1 .678 2.852c.115.547.22 1.097.33 1.645.698 3.965 1.293 7.953 1.627 11.966.17 2.3.114 1.489.267 3.783.115 1.73.207 3.465.467 5.18l.235 1.616.016.036c.239.642.412 1.304.608 1.96.19.601.294 1.223.37 1.847q.222.093.447.183c.742.276 1.49.549 2.256.752a1.1 1.1 0 0 1 .453.229h11.766l-3.552 14.353a2.01 2.01 0 0 0 .844 2.155c.332.22.716.323 1.096.323a2 2 0 0 0 1.22-.41l31.96-24.422h22.987a2 2 0 0 0 1.983-1.735l1.64-12.17c-.23-.064-.423-.334-.388-.798.034-.438.011-.873.002-1.312q-.003-.732-.016-1.465c-.01-.487-.026-.974-.059-1.46-.035-.491-.089-.986.009-1.473.106-.56.268-1.108.546-1.61.342-.636.729-1.255.917-1.96.09-.355.123-.436.166-.799.068-.583.022-1.173.059-1.758.027-.788.075-1.574.133-2.36a7 7 0 0 1-.083-.6c-.035-.475.001-.947.036-1.422.057-.853.273-1.684.43-2.522.018-.115.026-.231.036-.348v-.008l.02-.328c.013-.45-.012-.9-.029-1.349l-.013-.374c-.011-.4-.002-.473-.046-.873-.048-.445-.139-.881-.228-1.32-.13-.666-.307-1.327-.36-2.005-.01-.392.099-.739.456-.95.078-.045.171-.103.259-.081.222.054.413.198.62.297l.02.055.006-.365-.052-.276c-.171-.907-.14-1.828-.075-2.743.046-.582.092-1.164.128-1.747q-.019-.076.01-.12v-.009c.004-.062-.051-.177.01-.186.174-.024.357-.05.536-.053a2.1 2.1 0 0 1-.487-.558c-.065-.113-.105-.238-.158-.358-.204-.73-.013-1.436.233-2.126.156-.438.385-.846.552-1.279a1.8 1.8 0 0 0 .075-.445 51 51 0 0 1-.143-2.436c-.03-.528-.07-1.055-.105-1.582-.007-.122-.123-.306-.017-.367.127-.073.196-.104.292-.156a2 2 0 0 1 .092-.88c.13-.295.19-.606.233-.922.048-.393.06-.79.069-1.185.014-.536.08-1.07.134-1.603.04-.355.06-.711.072-1.069v-.014c-.82-.045-1.641-.106-2.45-.253-.452-.084-.901-.17-1.342-.3zm6.097 1.328c-.031.027-.054.061-.08.09q.034.308.052.615l.028-.201c.023-.169.02-.337 0-.504m-3.15 5.181c-.094.034-.069.04.004.039zm2.127.407-.086.112-.024.022v1.824c.045-.345.077-.596.097-1.054.014-.3.015-.602.013-.904m-90.59 6.19c-.019.036-.025.053-.044.088l.042.195zm88.882.225c-.081.289-.133.584-.092.888.047.138.105.244.184.345q-.047-.616-.092-1.233m-87.764.021-.077.548v.11a86 86 0 0 0 .106 4.855l.039.184q-.023-.912-.06-1.825c-.02-.934-.002-1.87-.008-2.805zm87.91 2.504c-.015.066-.036.136-.035.192.011.752.008 1.504.003 2.256l-.012.688c.01-.014.015-.025.025-.04.05-.07.113-.134.15-.213a1 1 0 0 0 .067-.277l.007-.405v-.006c-.018-.245-.057-.494-.05-.702q-.053-.739-.111-1.478zM4.66 24.7c.003.269-.002.371.033.672.034.29.087.58.136.869A45 45 0 0 1 4.66 24.7m.278 2.365c.09.797.156 1.597.318 2.384.04.23.109.433.19.627-.195-1-.357-2.004-.508-3.011m.28 4.623 5.193 24.715a138 138 0 0 0-.23-1.603 46 46 0 0 1-.304-2.636c-.026-.646-.061-1.294-.167-1.933a12 12 0 0 0-.5-1.72c-.32-.973-.577-1.965-.834-2.957-.271-1.088-.577-2.17-.814-3.266-.155-.587-.352-1.164-.444-1.767a33 33 0 0 1-.305-2.482c-.083-.959-.085-1.92-.145-2.881a18 18 0 0 0-.044-.427c-.132-.44-.278-.874-.405-1.315-.073-.267-.135-.536-.203-.805l-.004-.007c-.208-.327-.501-.588-.76-.871zm2.758 7.418c.05.416.105.83.174 1.244.09.57.279 1.116.426 1.672.239 1.101.543 2.184.815 3.277.252.967.501 1.936.814 2.885.027.075.048.151.075.227-.063-.367-.111-.736-.176-1.102-.108-.54-.211-1.081-.325-1.62a44 44 0 0 0-.665-2.798c-.318-1.18-.69-2.343-1.053-3.509zm80.88 6.025-.012.02c-.227.407-.356.853-.44 1.308-.076.399-.022.802.007 1.203.013.195.016.39.024.586zm-77.838 7.914q.087.804.2 1.605l.09.62c-.092-.742-.186-1.484-.29-2.225m.67 5.824q.024.405.045.81c.014.503.02 1.005.126 1.494-.027-.394-.05-.783-.14-2.001-.009-.101-.022-.202-.03-.304m.282 3.878a.4.4 0 0 1-.216.058l.325 1.548-.095-1.407z" clip-path="url(#a)" transform="translate(-1.957 -4.488)scale(1.0002)" fill="#0589ff"/><path d="M127.783 51.935h28.694v11.861h-44.48V51.935L138.86 22.28H113.74V10.42h40.992V22.28zm65.325-9.943c-.349-6.367-3.227-10.117-9.855-10.117q-2.748 0-4.71.785c-4.012 1.831-5.495 5.233-5.495 9.42 0 1.395.175 2.703.61 3.837 1.31 4.535 5.234 6.192 9.595 6.192 6.628 0 9.855-3.576 9.855-10.117m16.571 21.804h-13.082c-.873-2.18-1.657-4.36-2.18-6.628-2.966 4.884-7.501 7.064-13.083 7.064-12.472 0-21.368-10.466-21.368-22.414 0-13.78 10.291-22.066 23.287-22.066 13.867 0 22.589 8.896 22.937 22.24.088 1.134.088 2.442.088 4.012 0 6.105.959 12.21 3.401 17.792m4.797-61.051h13.082v61.051h-13.082zm42.823 49.364c6.367 0 10.03-3.75 10.03-10.117s-3.663-10.117-10.03-10.117-10.03 3.75-10.03 10.117 3.663 10.117 10.03 10.117m0 12.123c-13.431 0-23.112-8.896-23.112-22.24 0-13.78 10.03-22.24 23.112-22.24 13.518 0 23.112 8.896 23.112 22.24 0 13.693-10.117 22.24-23.112 22.24m44.48-7.5c0 4.448-3.052 7.5-7.5 7.5s-7.588-2.965-7.588-7.5c0-4.449 3.14-7.588 7.588-7.588 4.622 0 7.5 2.965 7.5 7.588M320.967 85.6h-13.083c2.442-5.495 3.489-11.774 3.489-17.705V20.188h13.082v47.62c0 6.018-1.046 12.297-3.488 17.792m-3.053-69.511c-4.448 0-7.588-3.14-7.588-7.588 0-4.535 3.14-7.5 7.588-7.5 4.535 0 7.5 2.965 7.5 7.5 0 4.623-2.877 7.588-7.5 7.588M331.171 62.4V50.19c5.756 1.744 12.995 2.092 18.926 2.092 2.355 0 4.186-.087 5.494-.348 1.221-.175 1.832-.61 1.832-1.221 0-.262-.087-.436-.262-.698-.872-.872-2.79-1.308-3.924-1.57s-2.617-.61-4.448-.96q-2.224-.392-5.233-1.046c-6.803-1.483-12.036-5.32-12.036-12.646 0-10.815 10.553-14.042 19.449-14.042 5.582 0 11.164.785 16.658 1.919v12.297c-5.494-1.657-11.687-2.093-17.443-2.093-2.268 0-3.838.087-4.797.349s-1.483.698-1.483 1.22c0 .786.785 1.31 2.268 1.57 1.483.35 3.576.786 6.105 1.222 2.268.436 4.448.872 6.541 1.395 6.454 1.657 11.077 5.146 11.077 12.123 0 11.687-11.774 14.565-21.194 14.565-5.93 0-11.774-.785-17.53-1.918" fill="#fff"/><g fill="#0598ff" stroke-width=".736"><path d="M85.613.316 2.132 9.386l-.001.004c.09.058.18.133.277.242.293.393.486.826.558 1.314.138.624.27 1.249.338 1.884.034.344.07.648.086.994.043.859.03 1.721.085 2.579.092 1.913.216 3.826.49 5.723.278 1.891.618 3.775 1.08 5.63.073.135.13.262.225.47.237.583.355 1.192.429 1.81.461 1.521.934 3.039 1.406 4.556.368 1.184.746 2.363 1.068 3.56a46 46 0 0 1 .677 2.853c.115.548.22 1.097.33 1.646.699 3.965 1.294 7.954 1.627 11.969.171 2.3.115 1.489.268 3.784.115 1.73.207 3.465.467 5.181l.235 1.616.016.036c.238.642.411 1.304.608 1.96.19.601.294 1.223.37 1.848q.223.093.447.183c.743.275 1.49.548 2.256.752.266.07.444.194.548.332h11.85l-4.61 17.184 35.627-25.149h25.882l1.063-14.07c-.205-.09-.366-.35-.334-.778.034-.438.012-.873.002-1.312q-.002-.733-.016-1.465c-.01-.488-.026-.975-.059-1.462-.035-.49-.089-.985.009-1.472.107-.56.268-1.108.546-1.61.18-.334.37-.664.54-1.004l1.05-13.936a18 18 0 0 0-.192-1.084c-.129-.667-.307-1.328-.36-2.006-.01-.391.1-.739.457-.95.077-.045.17-.103.258-.081q.075.019.146.05l.454-6.02-.042-.094c-.195-.697-.026-1.373.203-2.034l.425-5.619-.015-.217c-.008-.122-.123-.306-.017-.367.034-.02.051-.027.079-.042l.439-5.811a18 18 0 0 1-2.077-.23 13 13 0 0 1-1.407-.318q-.156-.046-.31-.098zm3.322 6.628c-.093.034-.068.04.005.039zM1.571 13.788l-.077.548v.11c-.002 1.249.008 2.5.053 3.75l.059.29c-.01-.275-.015-.55-.026-.825-.02-.935-.003-1.87-.009-2.806zm1.132 6.43c.003.269-.002.371.033.672.034.29.087.58.135.869a45 45 0 0 1-.168-1.542m.278 2.365c.09.798.156 1.597.318 2.385.04.23.109.433.19.627-.195-1-.357-2.005-.508-3.012m.459 4.821 1.597 7.777a36 36 0 0 1-.18-1.621c-.084-.96-.085-1.922-.146-2.883a18 18 0 0 0-.043-.427c-.133-.439-.279-.874-.406-1.314-.073-.267-.135-.537-.203-.806l-.004-.007c-.17-.267-.396-.491-.615-.719m2.58 7.223q.072.623.174 1.244c.09.57.279 1.116.426 1.673.238 1.1.542 2.184.815 3.277.252.967.501 1.936.814 2.885.027.076.049.152.075.228-.063-.367-.111-.736-.176-1.102-.108-.54-.211-1.082-.325-1.62a44 44 0 0 0-.666-2.8c-.317-1.18-.69-2.343-1.052-3.509zm-.517 2.817 2.893 14.07q-.082-.596-.17-1.19a46 46 0 0 1-.305-2.636c-.026-.647-.061-1.294-.167-1.933a12 12 0 0 0-.5-1.72c-.32-.974-.577-1.967-.834-2.959-.272-1.088-.577-2.17-.814-3.266q-.05-.183-.103-.365zm3.56 11.125q.086.805.2 1.605l.09.622q-.136-1.115-.29-2.227m.67 5.825c.015.27.033.54.045.81.014.504.02 1.006.126 1.496-.027-.395-.05-.784-.14-2.002-.009-.102-.022-.203-.03-.304m.282 3.879a.4.4 0 0 1-.218.059l.332 1.617q-.052-.738-.1-1.476zm2.518 11.806a.53.53 0 0 1-.3.108l.026.125h.871l-.277-.102z" clip-path="url(#b)"/><path d="m23.577 87.077 35.418-24.52 25.987-.314L88.335 0 3.458 9.326 14.251 70.94l13.098-.63z"/><path d="M85.191 62.348 88.439.105 3.04 9.431l11.21 61.614 13.098-.838-4.086 17.185 35.627-24.52z"/></g></svg>
