<svg width="1286" height="415" viewBox="0 0 1286 415" xmlns="http://www.w3.org/2000/svg"><g fill="none" fill-opacity="0" stroke-width=".3"><path d="M0 0v135c9.81-5.3 20.8-4.47 32.01-5.99s22.861-2.11 34.211-3.79S90.56 123.44 102 122s22.41-3.18 34-4c11.6-.81 22.37-3.1 34.02-3.98 11.66-.87 23.631-2.53 35.201-3.8S228.37 107.93 240 107s22.09-3.81 34-4c11.92-.18 22.81-4.33 35.02-3.98 12.22.35 7.12 18.68 5.98 27.98s-3.83 22.5-4.98 33.02c-1.14 10.53-3.07 23.58-4.35 34.65s-3.76 21.77-4.66 33.34c-.91 11.57-4.019 22.21-4.789 34.21s-4.52 20.76-4.22 33.78c.137 5.959-1.266 10.633-4.05 13.816.781.257 1.534.594 2.303.884a54 54 0 0 1 1.62-.193 4 4 0 0 1 .585-.022c1.547.05 2.258 1.01 2.032 1.895 2.422 1.145 1.831 3.475-.33 3.28-.228.086-.342.234-.627.284-.913.16-1.826.298-2.752.338-1.265.11-2.532.153-3.797.25-1.477.149-2.94.402-4.397.688-.594.118-1.202.149-1.799.256.039.96-.994 1.815-2.834 1.4-.501-.113-1.335-.34-2.035-.705-.266.023-.525.096-.79.113-4.714.315-9.429.484-14.153.387l-13.6.002c-2.501 0-5.002 0-7.504.014-1.737.01-3.474.024-5.21.08-1.66.058-3.324.129-4.973.334-1.087.176-2.158.439-3.256.535-3.312.29-3.73-3.04-.418-3.332 1.056-.093 2.088-.347 3.135-.518 1.788-.233 3.591-.311 5.392-.375 1.769-.057 3.538-.07 5.307-.082 2.508-.013 5.017-.012 7.525-.013l13.602-.002c1.053.022 2.102-.083 3.154-.086-.085-.59.255-1.283 1.05-1.787-11.137-.573-21.902 1.38-32.18.558-12.37-.99-25-1.61-33.75 4.25s-13.46 11-21.5 16.5c-8.03 5.51-14.3 11.59-22 17s-14.02 11.37-21.83 16.17c-7.81 4.79-12.88 13.03-21.17 16.83-8.29 3.81-13.36 15.86-23.76 15.24-.058-.003-.087-.036-.141-.043q-.07 1.264-.12 2.527l-.002.05c.23.782.207 1.395-.046 1.857-.08 3.3-3.42 3.23-3.356-.086q.013-.683.033-1.364c-.309-.547-.622-1.093-.914-1.65-.354-.764-.449-1.6-.605-2.418-.647.23-1.453-.29-1.549-1.623-.033-.45-.027-.354-.055-.686-.396.155-.795.372-1.183.26-.75-.217-.766-1.276-.618-2.263l-.513 1.193c.05.222.017.45.084.672.13.387.231.787.392 1.162.335.778.845 1.573 1.334 2.26.252.352.519.693.791 1.029.222.273.504.5.692.797.042.066-.03.154-.045.23-.62 3.266 2.126 5.11-.658 3.293-.484-.315-1.008-.577-1.452-.947-.392-.327-.707-.74-1.037-1.13-.752-.892-1.358-1.932-1.941-2.966-.269.657-.448.759-1.836-1.18-.124-.023-.22-.015-.28.048q.053-.152.104-.305c-.084-.171.046-.367.188-.564q.232-.705.469-1.409c-.677-2.722-.544-5.517-.178-8.281.331-2.4.826-4.77 1.24-7.156.477-2.205.825-4.437 1.295-6.643-.761-.863-.766-1.438.498-1.574.515-1.462 1.308-2.774 2.424-3.877.686-.614 1.498-1.003 2.336-1.34.149-.488.319-.97.447-1.463.365-1.407 1.191-2.037 1.937-2.03.942.007 1.724 1.05 1.307 2.798.119.025.233.059.346.094 2.03-8.17 4.198-18.453 5.62-25.262-14.34 1.14-26.43-1.51-41 0s-14.438-14.091-16.778-25.221c-2.33-11.14-4.44-22.76-7-34s-4.471-23.53-7.201-34.8c-2.72-11.27-4.26-22.66-7.01-33.99s-4.54-23.57-7.01-34.99c-2.47-11.43-5.2-23.06-8-34v270h1080c-2.04-1.43-5.36-1.47-8-2 1.42-8.88 2.97-17.75 3-27 16.55 6.83 33.48-2.1 32.98-21.02-.51-18.93.266-38.84.02-57.98-.25-19.14.13-38.77 0-58s.1-38.74 0-58h29c.3 27.73-.4 58.58 0 86s-.76 59.73 0 86-9.11 45.95-34 52h183v-108c-14.43 47.22-92.24 50.02-118 10 7.02-5.99 14.79-11.3 21-18 7.98 6.31 13.339 10.77 23.029 14.98 9.68 4.2 21.481 2.72 31.201-.75s15.94-14.76 9-23.46-16.4-9.49-25.9-12.1c-9.5-2.6-20.991-4.83-29.561-9.44s-15.929-9.01-19.539-18.46-3.72-22.4-.3-31.84c3.41-9.45 9.14-14.79 17.3-20.7s19.67-8.2 29.77-9.23 23.45-.8 32.68 3.32 16.16 6.79 22.57 15.43c6.41 8.65-7.209 12.401-13.949 18.551-6.74 6.16-13.57-5.25-22.38-8.22-8.81-2.98-23.55-3.67-31.67 3.17-8.11 6.84-6.74 17.65 2 23.5s18.96 6.93 28.77 9.23c9.81 2.29 18.92 5.38 27.67 10.33 8.754 4.94 13.52 14.14 16.31 22.689v-286zm760 103h29v237h-29zm362.16 13.494a23.5 23.5 0 0 1 4.844.506c26.09 5.4 18.21 47.28-9 42-25.51-4.95-18.974-42.437 4.156-42.506M402 118h161c2.21 14.86.11 32.11-9.77 42.23s-14.54 19.82-22.98 30.02c-8.45 10.19-15.12 19.81-23 30-7.89 10.18-15.07 19.99-23 30-7.94 10.01-14.77 20.409-22.55 30.449-7.79 10.04-15.72 19.8-22.7 30.3h126v29H398c-2.9-15.16.95-32 10.77-42.23s14.56-19.77 23-30 15.142-19.8 22.98-30.02c7.85-10.21 15.35-19.83 23-30 7.66-10.17 15.21-19.96 23-30 7.79-10.03 15.35-20.37 22.25-30.75H402zm500.96 68.662c2.66-.034 5.344.076 8.043.338 42.58 4.12 75.52 39.97 73 84s-41.55 75.37-85 73-75.5-41.37-73-84c2.344-39.965 37.049-72.83 76.957-73.338m-242.21.353c3.446.154 6.874.484 10.254.985 27.04 4.01 48.09 23.1 47 53s.04 68.74 1 99h-26c-1.22-6.76-.12-14.8-2-21-15.75 26.12-51.991 30.76-78.23 19.23-26.23-11.54-34.889-51.101-12.02-71.48s59.3-19.62 89.25-19.75c4.92-42.88-55.25-45.03-76-19-6.49-5.02-11.56-12.03-18-17 15.627-17.517 40.626-25.06 64.746-23.984zm381.44 112.45c1.539.021 3.145.194 4.81.54 26.14 5.41 15.34 49.68-11.22 41.22-24.9-7.93-16.674-42.072 6.41-41.76m-768.63 14.992q-.743.204-1.488.4l-.62.177c.906-.046 1.813-.046 2.72-.075a1.9 1.9 0 0 1-.612-.502M82.1 376.69c-.331 1.73-.632 3.465-1.01 5.186-.38 2.181-.81 4.354-1.135 6.545a463 463 0 0 0 1.88-4.387q.326-.78.65-1.562c-.016-.236-.071-.468-.084-.704a139 139 0 0 1-.116-4.85c.001-.06.016-.119.018-.179zm-1.25 18.186c-.477.092-.354.203-.084.442.032-.147.056-.294.084-.442"/><path d="M309.02 99.02c-12.21-.35-23.1 3.8-35.02 3.98-11.91.19-22.37 3.07-34 4s-23.209 1.951-34.779 3.221-23.541 2.929-35.201 3.799c-11.65.88-22.42 3.17-34.02 3.98-11.59.82-22.56 2.56-34 4s-24.429 1.541-35.779 3.221-23.001 2.27-34.211 3.79S9.81 129.7 0 135v10c2.8 10.94 5.53 22.57 8 34 2.47 11.42 4.26 23.66 7.01 34.99s4.29 22.72 7.01 33.99c2.73 11.27 4.64 23.559 7.2 34.799s4.67 22.86 7 34C38.56 327.91 38.43 343.51 53 342s26.66 1.14 41 0c-1.385 6.627-3.512 17.202-5.496 25.3 1.748.604 2.746 2.34 3.734 4.06.848 1.78 1.732 3.66 1.746 5.674.004.48-.073.96-.11 1.44-.33 2.406-1.302 4.632-2.196 6.867-.69 1.459-1.148 2.99-1.561 4.543-.583 2.265-.82 4.598-1.045 6.92a92 92 0 0 0-.223 3.162c.051.004.09.022.141.025 10.4.62 15.47-11.43 23.76-15.24 8.29-3.8 13.36-12.04 21.17-16.83 7.81-4.8 14.13-10.76 21.83-16.17s13.97-11.49 22-17c8.04-5.5 12.75-10.64 21.5-16.5s21.38-5.24 33.75-4.25c10.35.828 21.172-1.294 32.39-.682.278-.15.6-.279.974-.375 1.607-.412 3.203-.87 4.8-1.32 2.11-.553 4.21-1.147 6.32-1.697 1.719-.471 3.481-.688 5.257-.764q.31-.019.62-.021c1.447-.012 2.864.221 4.27.566.136.044.27.094.404.139 2.765-3.184 4.102-7.906 3.965-13.846-.3-13.02 3.451-21.78 4.221-33.78s3.88-22.64 4.79-34.21c.899-11.57 3.38-22.27 4.66-33.34s3.209-24.12 4.349-34.65c1.15-10.52 3.84-23.72 4.98-33.02s6.24-27.63-5.98-27.98z" stroke="#0798FF" stroke-opacity=".99"/><g stroke="#fff"><path d="M789 103h-29v237h29z" stroke-opacity=".97"/><path d="M1127 117c-26.96-5.58-36.21 36.72-9 42s35.09-36.6 9-42z" stroke-opacity=".95"/><path d="M563 118H402v29h121c-6.9 10.38-14.46 20.72-22.25 30.75-7.79 10.04-15.34 19.83-23 30-7.65 10.17-15.15 19.79-23 30-7.84 10.22-14.54 19.79-22.98 30.02s-13.18 19.77-23 30S395.1 324.84 398 340h167v-29H439c6.98-10.5 14.91-20.26 22.7-30.3 7.78-10.04 14.61-20.44 22.55-30.45 7.93-10.01 15.11-19.82 23-30 7.88-10.19 14.55-19.81 23-30 8.44-10.2 13.1-19.9 22.98-30.02S565.21 132.86 563 118z" stroke-opacity=".96"/><path d="M719 340c-.96-30.26-2.09-69.1-1-99s-19.96-48.99-47-53-57.14 2.98-75 23c6.44 4.97 11.51 11.98 18 17 20.75-26.03 80.92-23.88 76 19-29.95.13-66.38-.63-89.25 19.75s-14.21 59.94 12.02 71.48c26.24 11.53 62.48 6.89 78.23-19.23 1.88 6.2.78 14.24 2 21h26m-29-71c4.86 25.33-10.19 43.66-32.07 50.93-21.88 7.26-53.06-13.88-36.63-35.63 16.44-21.74 45.97-11.58 68.7-15.3z" stroke-opacity=".95"/><path d="M911 187c-43.18-4.18-82.5 30.37-85 73s29.55 81.63 73 84 82.48-28.97 85-73-30.42-79.88-73-84m4 28c36.54 5.93 49.45 56.13 27.75 83.75s-70.45 23.53-82.68-12.82C847.84 249.57 872.18 208.05 915 215zm371 92v-21c-2.79-8.55-7.55-17.75-16.31-22.69-8.75-4.95-17.86-8.04-27.67-10.33-9.81-2.3-20.03-3.38-28.77-9.23s-10.11-16.66-2-23.5c8.12-6.84 22.86-6.15 31.67-3.17 8.81 2.97 15.64 14.38 22.38 8.22 6.74-6.15 20.36-9.9 13.95-18.55-6.41-8.64-13.34-11.31-22.57-15.43s-22.58-4.35-32.68-3.32-21.61 3.32-29.77 9.23-13.89 11.25-17.3 20.7c-3.42 9.44-3.31 22.39.3 31.84s10.97 13.85 19.54 18.46 20.06 6.84 29.56 9.44c9.5 2.61 18.96 3.4 25.9 12.1s.72 19.99-9 23.46-21.52 4.95-31.2.75c-9.69-4.21-15.05-8.67-23.03-14.98-6.21 6.7-13.98 12.01-21 18 25.76 40.02 103.57 37.22 118-10zm-206 108h23c24.89-6.05 34.76-25.73 34-52s.4-58.58 0-86 .3-58.27 0-86h-29c.1 19.26-.13 38.77 0 58s-.25 38.86 0 58-.53 39.05-.02 57.98c.5 18.92-16.43 27.85-32.98 21.02-.03 9.25-1.58 18.12-3 27 2.64.53 5.96.57 8 2z" stroke-opacity=".96"/></g><path d="M915 215c-42.82-6.95-67.16 34.57-54.93 70.93 12.23 36.35 60.98 40.44 82.68 12.82S951.54 220.93 915 215m-225 54c-22.73 3.72-52.26-6.44-68.7 15.3-16.43 21.75 14.75 42.89 36.63 35.63 21.88-7.27 36.93-25.6 32.07-50.93"/><path d="M1047 300c-26.65-5.52-37.78 32.76-11.22 41.22s37.36-35.81 11.22-41.22z" stroke="#fff" stroke-opacity=".95"/></g><path d="M0 0v135c9.81-5.3 20.8-4.47 32.01-5.99s22.861-2.11 34.211-3.79S90.56 123.44 102 122s22.41-3.18 34-4c11.6-.81 22.37-3.1 34.02-3.98 11.66-.87 23.631-2.53 35.201-3.8S228.37 107.93 240 107s22.09-3.81 34-4c11.92-.18 22.81-4.33 35.02-3.98 12.22.35 7.12 18.68 5.98 27.98s-3.83 22.5-4.98 33.02c-1.14 10.53-3.07 23.58-4.35 34.65s-3.76 21.77-4.66 33.34c-.91 11.57-4.019 22.21-4.789 34.21s-4.52 20.76-4.22 33.78c.137 5.959-1.266 10.633-4.05 13.816.781.257 1.534.594 2.303.884a54 54 0 0 1 1.62-.193 4 4 0 0 1 .585-.022c1.547.05 2.258 1.01 2.032 1.895 2.422 1.145 1.831 3.475-.33 3.28-.228.086-.342.234-.627.284-.913.16-1.826.298-2.752.338-1.265.11-2.532.153-3.797.25-1.477.149-2.94.402-4.397.688-.594.118-1.202.149-1.799.256.039.96-.994 1.815-2.834 1.4-.501-.113-1.335-.34-2.035-.705-.266.023-.525.096-.79.113-4.714.315-9.429.484-14.153.387l-13.6.002c-2.501 0-5.002 0-7.504.014-1.737.01-3.474.024-5.21.08-1.66.058-3.324.129-4.973.334-1.087.176-2.158.439-3.256.535-3.312.29-3.73-3.04-.418-3.332 1.056-.093 2.088-.347 3.135-.518 1.788-.233 3.591-.311 5.392-.375 1.769-.057 3.538-.07 5.307-.082 2.508-.013 5.017-.012 7.525-.013l13.602-.002c1.053.022 2.102-.083 3.154-.086-.085-.59.255-1.283 1.05-1.787-11.137-.573-21.902 1.38-32.18.558-12.37-.99-25-1.61-33.75 4.25s-13.46 11-21.5 16.5c-8.03 5.51-14.3 11.59-22 17s-14.02 11.37-21.83 16.17c-7.81 4.79-12.88 13.03-21.17 16.83-8.29 3.81-13.36 15.86-23.76 15.24-.058-.003-.087-.036-.141-.043q-.07 1.264-.12 2.527l-.002.05c.23.782.207 1.395-.046 1.857-.08 3.3-3.42 3.23-3.356-.086q.013-.683.033-1.364c-.309-.547-.622-1.093-.914-1.65-.354-.764-.449-1.6-.605-2.418-.647.23-1.453-.29-1.549-1.623-.033-.45-.027-.354-.055-.686-.396.155-.795.372-1.183.26-.75-.217-.766-1.276-.618-2.263l-.513 1.193c.05.222.017.45.084.672.13.387.231.787.392 1.162.335.778.845 1.573 1.334 2.26.252.352.519.693.791 1.029.222.273.504.5.692.797.042.066-.03.154-.045.23-.62 3.266 2.126 5.11-.658 3.293-.484-.315-1.008-.577-1.452-.947-.392-.327-.707-.74-1.037-1.13-.752-.892-1.358-1.932-1.941-2.966-.269.657-.448.759-1.836-1.18-.124-.023-.22-.015-.28.048q.053-.152.104-.305c-.084-.171.046-.367.188-.564q.232-.705.469-1.409c-.677-2.722-.544-5.517-.178-8.281.331-2.4.826-4.77 1.24-7.156.477-2.205.825-4.437 1.295-6.643-.761-.863-.766-1.438.498-1.574.515-1.462 1.308-2.774 2.424-3.877.686-.614 1.498-1.003 2.336-1.34.149-.488.319-.97.447-1.463.365-1.407 1.191-2.037 1.937-2.03.942.007 1.724 1.05 1.307 2.798.119.025.233.059.346.094 2.03-8.17 4.198-18.453 5.62-25.262-14.34 1.14-26.43-1.51-41 0s-14.438-14.091-16.778-25.221c-2.33-11.14-4.44-22.76-7-34s-4.471-23.53-7.201-34.8c-2.72-11.27-4.26-22.66-7.01-33.99s-4.54-23.57-7.01-34.99c-2.47-11.43-5.2-23.06-8-34v270h1080c-2.04-1.43-5.36-1.47-8-2 1.42-8.88 2.97-17.75 3-27 16.55 6.83 33.48-2.1 32.98-21.02-.51-18.93.266-38.84.02-57.98-.25-19.14.13-38.77 0-58s.1-38.74 0-58h29c.3 27.73-.4 58.58 0 86s-.76 59.73 0 86-9.11 45.95-34 52h183v-108c-14.43 47.22-92.24 50.02-118 10 7.02-5.99 14.79-11.3 21-18 7.98 6.31 13.339 10.77 23.029 14.98 9.68 4.2 21.481 2.72 31.201-.75s15.94-14.76 9-23.46-16.4-9.49-25.9-12.1c-9.5-2.6-20.991-4.83-29.561-9.44s-15.929-9.01-19.539-18.46-3.72-22.4-.3-31.84c3.41-9.45 9.14-14.79 17.3-20.7s19.67-8.2 29.77-9.23 23.45-.8 32.68 3.32 16.16 6.79 22.57 15.43c6.41 8.65-7.209 12.401-13.949 18.551-6.74 6.16-13.57-5.25-22.38-8.22-8.81-2.98-23.55-3.67-31.67 3.17-8.11 6.84-6.74 17.65 2 23.5s18.96 6.93 28.77 9.23c9.81 2.29 18.92 5.38 27.67 10.33 8.754 4.94 13.52 14.14 16.31 22.689v-286zm760 103h29v237h-29zm362.16 13.494a23.5 23.5 0 0 1 4.844.506c26.09 5.4 18.21 47.28-9 42-25.51-4.95-18.974-42.437 4.156-42.506zM402 118h161c2.21 14.86.11 32.11-9.77 42.23s-14.54 19.82-22.98 30.02c-8.45 10.19-15.12 19.81-23 30-7.89 10.18-15.07 19.99-23 30-7.94 10.01-14.77 20.409-22.55 30.449-7.79 10.04-15.72 19.8-22.7 30.3h126v29H398c-2.9-15.16.95-32 10.77-42.23s14.56-19.77 23-30 15.142-19.8 22.98-30.02c7.85-10.21 15.35-19.83 23-30 7.66-10.17 15.21-19.96 23-30 7.79-10.03 15.35-20.37 22.25-30.75H402zm500.96 68.662c2.66-.034 5.344.076 8.043.338 42.58 4.12 75.52 39.97 73 84s-41.55 75.37-85 73-75.5-41.37-73-84c2.344-39.965 37.049-72.83 76.957-73.338zm-242.21.353c3.446.154 6.874.484 10.254.985 27.04 4.01 48.09 23.1 47 53s.04 68.74 1 99h-26c-1.22-6.76-.12-14.8-2-21-15.75 26.12-51.991 30.76-78.23 19.23-26.23-11.54-34.889-51.101-12.02-71.48s59.3-19.62 89.25-19.75c4.92-42.88-55.25-45.03-76-19-6.49-5.02-11.56-12.03-18-17 15.627-17.517 40.626-25.06 64.746-23.984zm381.44 112.45c1.539.021 3.145.194 4.81.54 26.14 5.41 15.34 49.68-11.22 41.22-24.9-7.93-16.674-42.072 6.41-41.76zm-768.63 14.992q-.743.204-1.488.4l-.62.177c.906-.046 1.813-.046 2.72-.075a1.9 1.9 0 0 1-.612-.502zM82.1 376.69c-.331 1.73-.632 3.465-1.01 5.186-.38 2.181-.81 4.354-1.135 6.545a463 463 0 0 0 1.88-4.387q.326-.78.65-1.562c-.016-.236-.071-.468-.084-.704a139 139 0 0 1-.116-4.85c.001-.06.016-.119.018-.179zm-1.25 18.186c-.477.092-.354.203-.084.442.032-.147.056-.294.084-.442z" fill="none" stroke="None"/><path d="M309.02 99.02c-12.21-.35-23.1 3.8-35.02 3.98-11.91.19-22.37 3.07-34 4s-23.209 1.951-34.779 3.221-23.541 2.929-35.201 3.799c-11.65.88-22.42 3.17-34.02 3.98-11.59.82-22.56 2.56-34 4s-24.429 1.541-35.779 3.221-23.001 2.27-34.211 3.79S9.81 129.7 0 135v10c2.8 10.94 5.53 22.57 8 34 2.47 11.42 4.26 23.66 7.01 34.99s4.29 22.72 7.01 33.99c2.73 11.27 4.64 23.559 7.2 34.799s4.67 22.86 7 34C38.56 327.91 38.43 343.51 53 342s26.66 1.14 41 0c-1.385 6.627-3.512 17.202-5.496 25.3 1.748.604 2.746 2.34 3.734 4.06.848 1.78 1.732 3.66 1.746 5.674.004.48-.073.96-.11 1.44-.33 2.406-1.302 4.632-2.196 6.867-.69 1.459-1.148 2.99-1.561 4.543-.583 2.265-.82 4.598-1.045 6.92a92 92 0 0 0-.223 3.162c.051.004.09.022.141.025 10.4.62 15.47-11.43 23.76-15.24 8.29-3.8 13.36-12.04 21.17-16.83 7.81-4.8 14.13-10.76 21.83-16.17s13.97-11.49 22-17c8.04-5.5 12.75-10.64 21.5-16.5s21.38-5.24 33.75-4.25c10.35.828 21.172-1.294 32.39-.682.278-.15.6-.279.974-.375 1.607-.412 3.203-.87 4.8-1.32 2.11-.553 4.21-1.147 6.32-1.697 1.719-.471 3.481-.688 5.257-.764q.31-.019.62-.021c1.447-.012 2.864.221 4.27.566.136.044.27.094.404.139 2.765-3.184 4.102-7.906 3.965-13.846-.3-13.02 3.451-21.78 4.221-33.78s3.88-22.64 4.79-34.21c.899-11.57 3.38-22.27 4.66-33.34s3.209-24.12 4.349-34.65c1.15-10.52 3.84-23.72 4.98-33.02s6.24-27.63-5.98-27.98z" fill="#0798FF" fill-opacity=".99" stroke="None"/><g fill="#fff" stroke="None"><path d="M789 103h-29v237h29z" fill-opacity=".97"/><path d="M1127 117c-26.96-5.58-36.21 36.72-9 42s35.09-36.6 9-42z" fill-opacity=".95"/><path d="M563 118H402v29h121c-6.9 10.38-14.46 20.72-22.25 30.75-7.79 10.04-15.34 19.83-23 30-7.65 10.17-15.15 19.79-23 30-7.84 10.22-14.54 19.79-22.98 30.02s-13.18 19.77-23 30S395.1 324.84 398 340h167v-29H439c6.98-10.5 14.91-20.26 22.7-30.3 7.78-10.04 14.61-20.44 22.55-30.45 7.93-10.01 15.11-19.82 23-30 7.88-10.19 14.55-19.81 23-30 8.44-10.2 13.1-19.9 22.98-30.02S565.21 132.86 563 118z" fill-opacity=".96"/><path d="M719 340c-.96-30.26-2.09-69.1-1-99s-19.96-48.99-47-53-57.14 2.98-75 23c6.44 4.97 11.51 11.98 18 17 20.75-26.03 80.92-23.88 76 19-29.95.13-66.38-.63-89.25 19.75s-14.21 59.94 12.02 71.48c26.24 11.53 62.48 6.89 78.23-19.23 1.88 6.2.78 14.24 2 21h26m-29-71c4.86 25.33-10.19 43.66-32.07 50.93-21.88 7.26-53.06-13.88-36.63-35.63 16.44-21.74 45.97-11.58 68.7-15.3z" fill-opacity=".95"/><path d="M911 187c-43.18-4.18-82.5 30.37-85 73s29.55 81.63 73 84 82.48-28.97 85-73-30.42-79.88-73-84m4 28c36.54 5.93 49.45 56.13 27.75 83.75s-70.45 23.53-82.68-12.82C847.84 249.57 872.18 208.05 915 215zm371 92v-21c-2.79-8.55-7.55-17.75-16.31-22.69-8.75-4.95-17.86-8.04-27.67-10.33-9.81-2.3-20.03-3.38-28.77-9.23s-10.11-16.66-2-23.5c8.12-6.84 22.86-6.15 31.67-3.17 8.81 2.97 15.64 14.38 22.38 8.22 6.74-6.15 20.36-9.9 13.95-18.55-6.41-8.64-13.34-11.31-22.57-15.43s-22.58-4.35-32.68-3.32-21.61 3.32-29.77 9.23-13.89 11.25-17.3 20.7c-3.42 9.44-3.31 22.39.3 31.84s10.97 13.85 19.54 18.46 20.06 6.84 29.56 9.44c9.5 2.61 18.96 3.4 25.9 12.1s.72 19.99-9 23.46-21.52 4.95-31.2.75c-9.69-4.21-15.05-8.67-23.03-14.98-6.21 6.7-13.98 12.01-21 18 25.76 40.02 103.57 37.22 118-10zm-206 108h23c24.89-6.05 34.76-25.73 34-52s.4-58.58 0-86 .3-58.27 0-86h-29c.1 19.26-.13 38.77 0 58s-.25 38.86 0 58-.53 39.05-.02 57.98c.5 18.92-16.43 27.85-32.98 21.02-.03 9.25-1.58 18.12-3 27 2.64.53 5.96.57 8 2z" fill-opacity=".96"/></g><path d="M915 215c-42.82-6.95-67.16 34.57-54.93 70.93 12.23 36.35 60.98 40.44 82.68 12.82S951.54 220.93 915 215zm-225 54c-22.73 3.72-52.26-6.44-68.7 15.3-16.43 21.75 14.75 42.89 36.63 35.63 21.88-7.27 36.93-25.6 32.07-50.93z" stroke="None" fill="none"/><path d="M1047 300c-26.65-5.52-37.78 32.76-11.22 41.22s37.36-35.81 11.22-41.22z" fill="#fff" fill-opacity=".95" stroke="None"/><g fill="#0698ff" fill-opacity=".992"><path d="M320.02 96.373 11.76 128.945l-12.424 4.701 41.639 208.87 47.012-.672.127 23.81c.08.353.095.772.008 1.255l.002.281c1.992.468 3.064 2.33 4.123 4.172.847 1.781 1.731 3.66 1.746 5.674.003.481-.074.96-.11 1.44-.331 2.406-1.302 4.633-2.197 6.867-.689 1.46-1.147 2.99-1.56 4.543-.584 2.265-.82 4.598-1.045 6.92a109 109 0 0 0-.334 5.517c.256.707.33 1.351.185 1.832l111.55-88.502 64.324-1.922c.369-.328.889-.61 1.569-.785 1.607-.412 3.204-.87 4.8-1.32 2.11-.553 4.21-1.147 6.32-1.697 1.719-.471 3.481-.688 5.257-.764q.31-.019.62-.021c1.447-.012 2.865.221 4.27.566.921.296 1.828.634 2.733.978l.42-.05z"/><path d="m88.804 341.92-.475 62.21 112.07-87.38 90.23-4.749 29.917-217.02-322.45 34.667 43.215 213.23z"/><path d="m87.307 404.47.168-60.779-46.172.168-40.8-197.78L0 128.114 321.02 94.03l-30.054 218.94-89.658 4.533-112.32 87.98s-1.343-4.87-1.679-1.008z"/><path d="m87.307 396.24.168 10.578 13.6-11.081z"/></g></svg>
