
<?xml version="1.0" encoding="UTF-8" standalone="no"?>
<svg
   viewBox="0 0 1286 415"
   width="1286"
   height="415"
   version="1.1"
   id="svg24"
   xmlns="http://www.w3.org/2000/svg"
   xmlns:svg="http://www.w3.org/2000/svg">
  <defs
     id="defs24" />
  <g
     fill="None"
     fill-opacity="0.0"
     stroke="#000000"
     stroke-opacity="0.00"
     stroke-width="0.3"
     id="g1">
    <path
       id="path1"
       d="m 0,0 v 135 c 9.8099118,-5.29991 20.799865,-4.47032 32.009766,-5.99023 11.209892,-1.52 22.861036,-2.10907 34.210937,-3.78907 C 77.570604,123.5407 90.560099,123.44 102,122 c 11.43991,-1.44 22.41009,-3.18 34,-4 11.59991,-0.81 22.36962,-3.10047 34.01953,-3.98047 11.65991,-0.87 23.63126,-2.52883 35.20117,-3.79883 11.56991,-1.27 23.14939,-2.2907 34.7793,-3.2207 11.62991,-0.93 22.09009,-3.81 34,-4 11.91991,-0.18 22.80962,-4.33046 35.01953,-3.980469 C 321.23944,99.369531 316.14,117.70009 315,127 c -1.14,9.29991 -3.83047,22.49962 -4.98047,33.01953 -1.14,10.52991 -3.06961,23.58048 -4.34961,34.65039 -1.28,11.06991 -3.76024,21.76994 -4.66015,33.33985 -0.91,11.56982 -4.01907,22.21111 -4.78907,34.21093 C 295.4507,274.22061 291.7,282.98009 292,296 c 0.13721,5.95942 -1.26571,10.63255 -4.04883,13.81641 0.78064,0.25743 1.53309,0.59433 2.30274,0.88476 0.53867,-0.0718 1.07829,-0.13793 1.61914,-0.19336 0.20668,-0.0212 0.40259,-0.0274 0.58593,-0.0215 1.54697,0.0503 2.25757,1.00959 2.03125,1.89453 2.422,1.14518 1.8316,3.4752 -0.33007,3.2793 -0.22795,0.0873 -0.34098,0.23525 -0.62696,0.28515 -0.91226,0.15921 -1.82526,0.29759 -2.75195,0.33789 -1.26462,0.10947 -2.53145,0.1523 -3.79687,0.25 -1.47684,0.14836 -2.94042,0.40201 -4.39649,0.6875 -0.59451,0.11831 -1.20218,0.14928 -1.79883,0.25586 0.0386,0.96133 -0.99431,1.81521 -2.83398,1.40039 -0.50165,-0.11311 -1.33555,-0.33911 -2.03516,-0.70507 -0.26571,0.0227 -0.52466,0.0959 -0.79101,0.11328 -4.71272,0.31457 -9.42777,0.48355 -14.15235,0.38672 -4.53325,-10e-6 -9.06628,-3e-4 -13.59961,0.002 -2.50142,10e-4 -5.00251,2.2e-4 -7.5039,0.0137 -1.73713,0.0112 -3.47455,0.0242 -5.21094,0.0801 -1.65968,0.0583 -3.32343,0.12928 -4.97266,0.33398 -1.08683,0.17641 -2.15781,0.43886 -3.25586,0.53516 -3.31145,0.29037 -3.72932,-3.04048 -0.41797,-3.33203 1.05646,-0.093 2.08868,-0.34638 3.13477,-0.51758 1.78831,-0.23372 3.59166,-0.3114 5.39258,-0.375 1.76853,-0.0573 3.53736,-0.0706 5.30664,-0.082 2.50807,-0.0134 5.0173,-0.0127 7.52539,-0.0137 4.5339,-0.002 9.06773,-0.002 13.60156,-0.002 1.05314,0.022 2.10216,-0.0823 3.1543,-0.0859 -0.0854,-0.58887 0.25438,-1.28295 1.04883,-1.78711 C 254.04411,312.86922 243.27911,314.82267 233,314 c -12.36991,-0.99 -25.00009,-1.60991 -33.75,4.25 -8.74991,5.85991 -13.46009,11.00009 -21.5,16.5 -8.02991,5.50991 -14.30009,11.59009 -22,17 -7.69991,5.40991 -14.02017,11.37001 -21.83008,16.16992 -7.80991,4.79 -12.88001,13.03008 -21.16992,16.83008 -8.28991,3.81 -13.359856,15.86023 -23.759766,15.24023 -0.05747,-0.003 -0.08646,-0.0361 -0.140625,-0.043 -0.0468,0.84207 -0.08699,1.68447 -0.11914,2.52734 -5.96e-4,0.0163 -0.0014,0.0325 -0.002,0.0488 0.229829,0.78269 0.20605,1.3956 -0.04687,1.85742 -0.07907,3.30039 -3.419681,3.22973 -3.355469,-0.0859 0.0088,-0.45435 0.0206,-0.90886 0.0332,-1.36328 -0.309133,-0.54767 -0.622521,-1.09301 -0.914063,-1.65039 -0.354375,-0.76384 -0.449225,-1.59915 -0.605468,-2.41797 -0.647012,0.22931 -1.452861,-0.29073 -1.548828,-1.62305 -0.03248,-0.45085 -0.02737,-0.35362 -0.05469,-0.68554 -0.396215,0.15404 -0.795468,0.37197 -1.183594,0.25976 -0.750077,-0.21683 -0.765982,-1.27578 -0.617187,-2.26367 -0.172045,0.39735 -0.342595,0.79558 -0.513672,1.19336 0.05085,0.2223 0.01739,0.45092 0.08398,0.67188 0.13055,0.38706 0.231251,0.78691 0.392579,1.1621 0.334659,0.77851 0.844512,1.57296 1.333984,2.25977 0.251286,0.35259 0.518236,0.69306 0.791016,1.0293 0.221567,0.27313 0.503738,0.49943 0.691406,0.79687 0.04173,0.0661 -0.03036,0.15367 -0.04492,0.23047 -0.619133,3.26606 2.125808,5.10945 -0.658203,3.29297 -0.484024,-0.3158 -1.007485,-0.57693 -1.451172,-0.94727 -0.392465,-0.32757 -0.707214,-0.74043 -1.037109,-1.13085 -0.75282,-0.89112 -1.358632,-1.93131 -1.941407,-2.96485 -0.2689,0.65654 -0.447981,0.75823 -1.835937,-1.17969 -0.123808,-0.024 -0.220894,-0.0155 -0.279297,0.0469 0.0348,-0.10144 0.06928,-0.20305 0.103515,-0.30469 -0.08426,-0.17121 0.04565,-0.36718 0.1875,-0.56445 0.154832,-0.47003 0.310802,-0.93942 0.46875,-1.4082 -0.676902,-2.72222 -0.543904,-5.51754 -0.177734,-8.28126 0.331575,-2.39958 0.825737,-4.77073 1.240234,-7.15624 0.476754,-2.20511 0.824696,-4.43673 1.294922,-6.64258 -0.761238,-0.863 -0.766277,-1.43806 0.498047,-1.57422 0.514712,-1.46245 1.307724,-2.77412 2.423828,-3.87696 0.685907,-0.61415 1.497892,-1.00259 2.335938,-1.33984 0.148863,-0.4881 0.319385,-0.96946 0.447265,-1.46289 0.364885,-1.40783 1.191404,-2.03749 1.9375,-2.03125 0.941553,0.008 1.723466,1.05028 1.306641,2.79883 0.118788,0.0253 0.233201,0.0589 0.345703,0.0937 C 90.409312,359.09257 92.576658,348.80828 94,342 c -14.339874,1.14 -26.430135,-1.51 -41,0 -14.569865,1.51 -14.439315,-14.09079 -16.779297,-25.2207 -2.329982,-11.13991 -4.440018,-22.76009 -7,-34 C 26.66073,271.53939 24.749513,259.25038 22.019531,247.98047 19.299558,236.71056 17.759739,225.32014 15.009766,213.99023 12.259784,202.66041 10.469982,190.41991 8,179 5.5300225,167.57009 2.7999748,155.93991 0,145 v 270 h 1080 c -2.04,-1.43 -5.36,-1.47 -8,-2 1.42,-8.87991 2.97,-17.75009 3,-27 16.55,6.82991 33.4805,-2.09971 32.9805,-21.01953 -0.51,-18.92982 0.2655,-38.84065 0.02,-57.98047 -0.25,-19.13982 0.13,-38.77018 0,-58 -0.13,-19.22982 0.1,-38.74018 0,-58 h 29 c 0.3,27.72973 -0.4,58.58027 0,86 0.4,27.41973 -0.76,59.73027 0,86 0.76,26.26973 -9.11,45.95009 -34,52 h 183 V 307 c -14.43,47.21955 -92.24,50.01964 -118,10 7.02,-5.98991 14.79,-11.30009 21,-18 7.98,6.30991 13.3393,10.77047 23.0293,14.98047 9.68,4.19991 21.4812,2.72 31.2012,-0.75 9.72,-3.47 15.94,-14.76103 9,-23.46094 -6.94,-8.69991 -16.4004,-9.48961 -25.9004,-12.09961 -9.5,-2.6 -20.9906,-4.82954 -29.5606,-9.43945 -8.57,-4.61 -15.929,-9.01103 -19.539,-18.46094 -3.61,-9.44991 -3.7208,-22.39993 -0.3008,-31.83984 3.41,-9.44991 9.1408,-14.78931 17.3008,-20.69922 8.16,-5.91 19.6695,-8.20047 29.7695,-9.23047 10.1,-1.03 23.4497,-0.7996 32.6797,3.32031 9.23,4.12 16.1603,6.78978 22.5703,15.42969 6.41,8.64991 -7.2092,12.40087 -13.9492,18.55078 -6.74,6.16 -13.5709,-5.2507 -22.3809,-8.2207 -8.81,-2.98 -23.5499,-3.66999 -31.6699,3.16992 -8.11,6.83991 -6.74,17.65009 2,23.5 8.74,5.84991 18.9595,6.93047 28.7695,9.23047 9.81,2.29 18.92,5.38008 27.67,10.33008 C 1278.4446,268.25046 1283.21,277.45009 1286,286 V 0 Z m 760,103 h 29 v 237 h -29 z m 362.1562,13.49414 c 1.5421,-0.005 3.1588,0.15711 4.8438,0.50586 26.09,5.39991 18.21,47.27991 -9,42 -25.5093,-4.95 -18.9739,-42.43709 4.1562,-42.50586 z M 402,118 h 161 c 2.21,14.85991 0.11038,32.11056 -9.76953,42.23047 -9.87991,10.11991 -14.54056,19.81962 -22.98047,30.01953 -8.44991,10.18991 -15.12009,19.81009 -23,30 -7.88991,10.17991 -15.07009,19.99009 -23,30 -7.93991,10.00991 -14.77087,20.40931 -22.55078,30.44922 C 453.90931,290.73913 445.97991,300.50009 439,311 h 126 v 29 H 398 c -2.9,-15.15982 0.94962,-32.00056 10.76953,-42.23047 9.81991,-10.22991 14.56009,-19.77009 23,-30 8.43991,-10.22991 15.14056,-19.79962 22.98047,-30.01953 7.84991,-10.20991 15.35009,-19.83009 23,-30 7.65991,-10.16991 15.21009,-19.96009 23,-30 C 508.53991,167.72009 516.10009,157.37991 523,147 H 402 Z m 500.95703,68.66211 c 2.66055,-0.0339 5.34422,0.0766 8.04297,0.33789 42.57964,4.12 75.52,39.97036 73,84 -2.52,44.02964 -41.55036,75.37 -85,73 -43.44964,-2.37 -75.5,-41.37036 -73,-84 2.34375,-39.96527 37.04919,-72.83021 76.95703,-73.33789 z m -242.21094,0.35351 C 664.19183,187.16916 667.62,187.49875 671,188 c 27.03973,4.01 48.09,23.10027 47,53 -1.09,29.89973 0.04,68.74027 1,99 h -26 c -1.22,-6.75991 -0.12,-14.80009 -2,-21 -15.74982,26.11973 -51.99065,30.76038 -78.23047,19.23047 C 586.5398,326.69056 577.88018,287.12982 600.75,266.75 623.61982,246.37018 660.05027,247.13 690,247 c 4.92,-42.87964 -55.25018,-45.02973 -76,-19 -6.48991,-5.01991 -11.56009,-12.03 -18,-17 15.62732,-17.51732 40.62616,-25.05904 64.74609,-23.98438 z m 381.44341,112.44532 c 1.5389,0.0208 3.1449,0.19406 4.8105,0.53906 26.14,5.40991 15.3393,49.68061 -11.2207,41.2207 -24.9,-7.93116 -16.6743,-42.07155 6.4102,-41.75976 z m -768.627,14.99218 c -0.49583,0.13436 -0.99126,0.27014 -1.48828,0.4004 -0.20629,0.0582 -0.41296,0.11688 -0.61914,0.17578 0.90563,-0.0452 1.81255,-0.0452 2.71875,-0.0742 -0.2591,-0.13705 -0.46291,-0.30977 -0.61133,-0.50196 z M 82.107422,376.68555 c -0.331395,1.72938 -0.631851,3.46495 -1.009766,5.18554 -0.379436,2.18124 -0.810128,4.3543 -1.134765,6.54493 0.621222,-1.43664 1.30492,-3.01741 1.878906,-4.38672 0.217711,-0.51938 0.436182,-1.03988 0.650391,-1.5625 -0.01593,-0.2358 -0.07084,-0.4672 -0.08398,-0.70313 -0.07493,-1.61509 -0.09694,-3.23309 -0.115234,-4.84961 7.65e-4,-0.0604 0.01538,-0.1195 0.01758,-0.17968 -0.0677,-0.0161 -0.135046,-0.0328 -0.203125,-0.0488 z m -1.25,18.18554 c -0.477198,0.0911 -0.353677,0.20279 -0.08398,0.44141 0.03229,-0.1466 0.05629,-0.29409 0.08398,-0.44141 z" />
  </g>
  <g
     fill="None"
     fill-opacity="0.0"
     stroke="#0798FF"
     stroke-opacity="0.99"
     stroke-width="0.3"
     id="g2">
    <path
       id="path2"
       d="M 309.01953,99.019531 C 296.80962,98.66954 285.91991,102.82 274,103 c -11.90991,0.19 -22.37009,3.07 -34,4 -11.62991,0.93 -23.20939,1.9507 -34.7793,3.2207 -11.56991,1.27 -23.54126,2.92883 -35.20117,3.79883 C 158.36962,114.89953 147.59991,117.19 136,118 c -11.58991,0.82 -22.56009,2.56 -34,4 -11.439901,1.44 -24.429396,1.5407 -35.779297,3.2207 -11.349901,1.68 -23.001045,2.26907 -34.210937,3.78907 C 20.799865,130.52968 9.8099118,129.70009 0,135 v 10 c 2.7999748,10.93991 5.5300225,22.57009 8,34 2.469982,11.41991 4.259784,23.66041 7.009766,34.99023 2.749973,11.32991 4.289792,22.72033 7.009765,33.99024 2.729982,11.26991 4.641199,23.55892 7.201172,34.79883 2.559982,11.23991 4.670018,22.86009 7,34 C 38.560685,327.90921 38.430135,343.51 53,342 c 14.569865,-1.51 26.660126,1.14 41,0 -1.385346,6.62654 -3.5114,17.20241 -5.496094,25.29883 1.748012,0.6046 2.746513,2.34145 3.734375,4.06055 0.847639,1.78059 1.731474,3.65898 1.746094,5.67382 0.0035,0.48096 -0.07353,0.95983 -0.109375,1.43946 -0.331651,2.40643 -1.302413,4.63298 -2.197266,6.86718 -0.688929,1.45932 -1.147458,2.98989 -1.560546,4.54297 -0.583202,2.26501 -0.819314,4.59807 -1.044922,6.91992 -0.09488,1.05257 -0.16419,2.10712 -0.222657,3.16211 0.05076,0.004 0.08881,0.0224 0.140625,0.0254 10.39991,0.62 15.469856,-11.43023 23.759766,-15.24023 8.28991,-3.8 13.36001,-12.04008 21.16992,-16.83008 7.80991,-4.79991 14.13017,-10.76001 21.83008,-16.16992 7.69991,-5.40991 13.97009,-11.49009 22,-17 8.03991,-5.49991 12.75009,-10.64009 21.5,-16.5 8.74991,-5.85991 21.38009,-5.24 33.75,-4.25 10.34877,0.82824 21.17226,-1.29447 32.38867,-0.68164 0.27848,-0.15016 0.60147,-0.2792 0.97461,-0.375 1.60721,-0.41265 3.20375,-0.86987 4.80078,-1.32031 2.11019,-0.55304 4.20917,-1.14668 6.32032,-1.69727 1.71821,-0.47076 3.48037,-0.68777 5.25585,-0.76367 0.2078,-0.012 0.41452,-0.0198 0.6211,-0.0215 1.44605,-0.0114 2.8638,0.22175 4.26953,0.56641 0.13565,0.0436 0.26905,0.0938 0.4043,0.13867 2.76422,-3.18361 4.10159,-7.90605 3.96484,-13.8457 -0.3,-13.01991 3.4507,-21.77939 4.2207,-33.7793 0.77,-11.99982 3.87907,-22.64111 4.78907,-34.21093 0.89991,-11.56991 3.38015,-22.26994 4.66015,-33.33985 1.28,-11.06991 3.20961,-24.12048 4.34961,-34.65039 C 311.16953,149.4996 313.86,136.29991 315,127 c 1.14,-9.29991 6.23944,-27.630469 -5.98047,-27.980469 z" />
  </g>
  <g
     fill="None"
     fill-opacity="0.0"
     stroke="#FFFFFF"
     stroke-opacity="0.97"
     stroke-width="0.3"
     id="g3">
    <path
       d=" M 789.00 103.00  C 779.33 103.00 769.67 103.00 760.00 103.00 C 760.00 182.00 760.00 261.00 760.00 340.00 C 769.67 340.00 779.33 340.00 789.00 340.00 C 789.00 261.00 789.00 182.00 789.00 103.00 Z"
       id="path3" />
  </g>
  <g
     fill="None"
     fill-opacity="0.0"
     stroke="#FFFFFF"
     stroke-opacity="0.95"
     stroke-width="0.3"
     id="g4">
    <path
       d=" M 1127.00 117.00  C 1100.04 111.42 1090.79 153.72 1118.00 159.00 C 1145.21 164.28 1153.09 122.40 1127.00 117.00 Z"
       id="path4" />
  </g>
  <g
     fill="None"
     fill-opacity="0.0"
     stroke="#FFFFFF"
     stroke-opacity="0.96"
     stroke-width="0.3"
     id="g5">
    <path
       d=" M 563.00 118.00  C 509.34 118.00 455.66 118.00 402.00 118.00 C 402.00 127.67 402.00 137.33 402.00 147.00 C 442.33 147.00 482.67 147.00 523.00 147.00 C 516.10 157.38 508.54 167.72 500.75 177.75 C 492.96 187.79 485.41 197.58 477.75 207.75 C 470.10 217.92 462.60 227.54 454.75 237.75 C 446.91 247.97 440.21 257.54 431.77 267.77 C 423.33 278.00 418.59 287.54 408.77 297.77 C 398.95 308.00 395.10 324.84 398.00 340.00 C 453.67 340.00 509.33 340.00 565.00 340.00 C 565.00 330.33 565.00 320.67 565.00 311.00 C 523.00 311.00 481.00 311.00 439.00 311.00 C 445.98 300.50 453.91 290.74 461.70 280.70 C 469.48 270.66 476.31 260.26 484.25 250.25 C 492.18 240.24 499.36 230.43 507.25 220.25 C 515.13 210.06 521.80 200.44 530.25 190.25 C 538.69 180.05 543.35 170.35 553.23 160.23 C 563.11 150.11 565.21 132.86 563.00 118.00 Z"
       id="path5" />
  </g>
  <g
     fill="None"
     fill-opacity="0.0"
     stroke="#FFFFFF"
     stroke-opacity="0.95"
     stroke-width="0.3"
     id="g6">
    <path
       d=" M 719.00 340.00  C 718.04 309.74 716.91 270.90 718.00 241.00 C 719.09 211.10 698.04 192.01 671.00 188.00 C 643.96 183.99 613.86 190.98 596.00 211.00 C 602.44 215.97 607.51 222.98 614.00 228.00 C 634.75 201.97 694.92 204.12 690.00 247.00 C 660.05 247.13 623.62 246.37 600.75 266.75 C 577.88 287.13 586.54 326.69 612.77 338.23 C 639.01 349.76 675.25 345.12 691.00 319.00 C 692.88 325.20 691.78 333.24 693.00 340.00 C 701.67 340.00 710.33 340.00 719.00 340.00 M 690.00 269.00  C 694.86 294.33 679.81 312.66 657.93 319.93 C 636.05 327.19 604.87 306.05 621.30 284.30 C 637.74 262.56 667.27 272.72 690.00 269.00 Z"
       id="path6" />
  </g>
  <g
     fill="None"
     fill-opacity="0.0"
     stroke="#FFFFFF"
     stroke-opacity="0.96"
     stroke-width="0.3"
     id="g7">
    <path
       d=" M 911.00 187.00  C 867.82 182.82 828.50 217.37 826.00 260.00 C 823.50 302.63 855.55 341.63 899.00 344.00 C 942.45 346.37 981.48 315.03 984.00 271.00 C 986.52 226.97 953.58 191.12 911.00 187.00 M 915.00 215.00  C 951.54 220.93 964.45 271.13 942.75 298.75 C 921.05 326.37 872.30 322.28 860.07 285.93 C 847.84 249.57 872.18 208.05 915.00 215.00 Z"
       id="path7" />
  </g>
  <g
     fill="None"
     fill-opacity="0.0"
     stroke="#FFFFFF"
     stroke-opacity="0.96"
     stroke-width="0.3"
     id="g8">
    <path
       d=" M 1286.00 307.00  L 1286.00 286.00 C 1283.21 277.45 1278.45 268.25 1269.69 263.31 C 1260.94 258.36 1251.83 255.27 1242.02 252.98 C 1232.21 250.68 1221.99 249.60 1213.25 243.75 C 1204.51 237.90 1203.14 227.09 1211.25 220.25 C 1219.37 213.41 1234.11 214.10 1242.92 217.08 C 1251.73 220.05 1258.56 231.46 1265.30 225.30 C 1272.04 219.15 1285.66 215.40 1279.25 206.75 C 1272.84 198.11 1265.91 195.44 1256.68 191.32 C 1247.45 187.20 1234.10 186.97 1224.00 188.00 C 1213.90 189.03 1202.39 191.32 1194.23 197.23 C 1186.07 203.14 1180.34 208.48 1176.93 217.93 C 1173.51 227.37 1173.62 240.32 1177.23 249.77 C 1180.84 259.22 1188.20 263.62 1196.77 268.23 C 1205.34 272.84 1216.83 275.07 1226.33 277.67 C 1235.83 280.28 1245.29 281.07 1252.23 289.77 C 1259.17 298.47 1252.95 309.76 1243.23 313.23 C 1233.51 316.70 1221.71 318.18 1212.03 313.98 C 1202.34 309.77 1196.98 305.31 1189.00 299.00 C 1182.79 305.70 1175.02 311.01 1168.00 317.00 C 1193.76 357.02 1271.57 354.22 1286.00 307.00 Z"
       id="path8" />
  </g>
  <g
     fill="None"
     fill-opacity="0.0"
     stroke="#FFFFFF"
     stroke-opacity="0.96"
     stroke-width="0.3"
     id="g9">
    <path
       d=" M 1080.00 415.00  L 1103.00 415.00 C 1127.89 408.95 1137.76 389.27 1137.00 363.00 C 1136.24 336.73 1137.40 304.42 1137.00 277.00 C 1136.60 249.58 1137.30 218.73 1137.00 191.00 C 1127.33 191.00 1117.67 191.00 1108.00 191.00 C 1108.10 210.26 1107.87 229.77 1108.00 249.00 C 1108.13 268.23 1107.75 287.86 1108.00 307.00 C 1108.25 326.14 1107.47 346.05 1107.98 364.98 C 1108.48 383.90 1091.55 392.83 1075.00 386.00 C 1074.97 395.25 1073.42 404.12 1072.00 413.00 C 1074.64 413.53 1077.96 413.57 1080.00 415.00 Z"
       id="path9" />
  </g>
  <g
     fill="None"
     fill-opacity="0.0"
     stroke="#000000"
     stroke-opacity="0.00"
     stroke-width="0.3"
     id="g10">
    <path
       d=" M 915.00 215.00  C 872.18 208.05 847.84 249.57 860.07 285.93 C 872.30 322.28 921.05 326.37 942.75 298.75 C 964.45 271.13 951.54 220.93 915.00 215.00 Z"
       id="path10" />
  </g>
  <g
     fill="None"
     fill-opacity="0.0"
     stroke="#000000"
     stroke-opacity="0.00"
     stroke-width="0.3"
     id="g11">
    <path
       d=" M 690.00 269.00  C 667.27 272.72 637.74 262.56 621.30 284.30 C 604.87 306.05 636.05 327.19 657.93 319.93 C 679.81 312.66 694.86 294.33 690.00 269.00 Z"
       id="path11" />
  </g>
  <g
     fill="None"
     fill-opacity="0.0"
     stroke="#FFFFFF"
     stroke-opacity="0.95"
     stroke-width="0.3"
     id="g12">
    <path
       d=" M 1047.00 300.00  C 1020.35 294.48 1009.22 332.76 1035.78 341.22 C 1062.34 349.68 1073.14 305.41 1047.00 300.00 Z"
       id="path12" />
  </g>
  <g
     fill="#000000"
     fill-opacity="0.00"
     stroke="None"
     id="g13">
    <path
       id="path13"
       d="m 0,0 v 135 c 9.8099118,-5.29991 20.799865,-4.47032 32.009766,-5.99023 11.209892,-1.52 22.861036,-2.10907 34.210937,-3.78907 C 77.570604,123.5407 90.560099,123.44 102,122 c 11.43991,-1.44 22.41009,-3.18 34,-4 11.59991,-0.81 22.36962,-3.10047 34.01953,-3.98047 11.65991,-0.87 23.63126,-2.52883 35.20117,-3.79883 11.56991,-1.27 23.14939,-2.2907 34.7793,-3.2207 11.62991,-0.93 22.09009,-3.81 34,-4 11.91991,-0.18 22.80962,-4.33046 35.01953,-3.980469 C 321.23944,99.369531 316.14,117.70009 315,127 c -1.14,9.29991 -3.83047,22.49962 -4.98047,33.01953 -1.14,10.52991 -3.06961,23.58048 -4.34961,34.65039 -1.28,11.06991 -3.76024,21.76994 -4.66015,33.33985 -0.91,11.56982 -4.01907,22.21111 -4.78907,34.21093 C 295.4507,274.22061 291.7,282.98009 292,296 c 0.13721,5.95942 -1.26571,10.63255 -4.04883,13.81641 0.78064,0.25743 1.53309,0.59433 2.30274,0.88476 0.53867,-0.0718 1.07829,-0.13793 1.61914,-0.19336 0.20668,-0.0212 0.40259,-0.0274 0.58593,-0.0215 1.54697,0.0503 2.25757,1.00959 2.03125,1.89453 2.422,1.14518 1.8316,3.4752 -0.33007,3.2793 -0.22795,0.0873 -0.34098,0.23525 -0.62696,0.28515 -0.91226,0.15921 -1.82526,0.29759 -2.75195,0.33789 -1.26462,0.10947 -2.53145,0.1523 -3.79687,0.25 -1.47684,0.14836 -2.94042,0.40201 -4.39649,0.6875 -0.59451,0.11831 -1.20218,0.14928 -1.79883,0.25586 0.0386,0.96133 -0.99431,1.81521 -2.83398,1.40039 -0.50165,-0.11311 -1.33555,-0.33911 -2.03516,-0.70507 -0.26571,0.0227 -0.52466,0.0959 -0.79101,0.11328 -4.71272,0.31457 -9.42777,0.48355 -14.15235,0.38672 -4.53325,-10e-6 -9.06628,-3e-4 -13.59961,0.002 -2.50142,10e-4 -5.00251,2.2e-4 -7.5039,0.0137 -1.73713,0.0112 -3.47455,0.0242 -5.21094,0.0801 -1.65968,0.0583 -3.32343,0.12928 -4.97266,0.33398 -1.08683,0.17641 -2.15781,0.43886 -3.25586,0.53516 -3.31145,0.29037 -3.72932,-3.04048 -0.41797,-3.33203 1.05646,-0.093 2.08868,-0.34638 3.13477,-0.51758 1.78831,-0.23372 3.59166,-0.3114 5.39258,-0.375 1.76853,-0.0573 3.53736,-0.0706 5.30664,-0.082 2.50807,-0.0134 5.0173,-0.0127 7.52539,-0.0137 4.5339,-0.002 9.06773,-0.002 13.60156,-0.002 1.05314,0.022 2.10216,-0.0823 3.1543,-0.0859 -0.0854,-0.58887 0.25438,-1.28295 1.04883,-1.78711 C 254.04411,312.86922 243.27911,314.82267 233,314 c -12.36991,-0.99 -25.00009,-1.60991 -33.75,4.25 -8.74991,5.85991 -13.46009,11.00009 -21.5,16.5 -8.02991,5.50991 -14.30009,11.59009 -22,17 -7.69991,5.40991 -14.02017,11.37001 -21.83008,16.16992 -7.80991,4.79 -12.88001,13.03008 -21.16992,16.83008 -8.28991,3.81 -13.359856,15.86023 -23.759766,15.24023 -0.05747,-0.003 -0.08646,-0.0361 -0.140625,-0.043 -0.0468,0.84207 -0.08699,1.68447 -0.11914,2.52734 -5.96e-4,0.0163 -0.0014,0.0325 -0.002,0.0488 0.229829,0.78269 0.20605,1.3956 -0.04687,1.85742 -0.07907,3.30039 -3.419681,3.22973 -3.355469,-0.0859 0.0088,-0.45435 0.0206,-0.90886 0.0332,-1.36328 -0.309133,-0.54767 -0.622521,-1.09301 -0.914063,-1.65039 -0.354375,-0.76384 -0.449225,-1.59915 -0.605468,-2.41797 -0.647012,0.22931 -1.452861,-0.29073 -1.548828,-1.62305 -0.03248,-0.45085 -0.02737,-0.35362 -0.05469,-0.68554 -0.396215,0.15404 -0.795468,0.37197 -1.183594,0.25976 -0.750077,-0.21683 -0.765982,-1.27578 -0.617187,-2.26367 -0.172045,0.39735 -0.342595,0.79558 -0.513672,1.19336 0.05085,0.2223 0.01739,0.45092 0.08398,0.67188 0.13055,0.38706 0.231251,0.78691 0.392579,1.1621 0.334659,0.77851 0.844512,1.57296 1.333984,2.25977 0.251286,0.35259 0.518236,0.69306 0.791016,1.0293 0.221567,0.27313 0.503738,0.49943 0.691406,0.79687 0.04173,0.0661 -0.03036,0.15367 -0.04492,0.23047 -0.619133,3.26606 2.125808,5.10945 -0.658203,3.29297 -0.484024,-0.3158 -1.007485,-0.57693 -1.451172,-0.94727 -0.392465,-0.32757 -0.707214,-0.74043 -1.037109,-1.13085 -0.75282,-0.89112 -1.358632,-1.93131 -1.941407,-2.96485 -0.2689,0.65654 -0.447981,0.75823 -1.835937,-1.17969 -0.123808,-0.024 -0.220894,-0.0155 -0.279297,0.0469 0.0348,-0.10144 0.06928,-0.20305 0.103515,-0.30469 -0.08426,-0.17121 0.04565,-0.36718 0.1875,-0.56445 0.154832,-0.47003 0.310802,-0.93942 0.46875,-1.4082 -0.676902,-2.72222 -0.543904,-5.51754 -0.177734,-8.28126 0.331575,-2.39958 0.825737,-4.77073 1.240234,-7.15624 0.476754,-2.20511 0.824696,-4.43673 1.294922,-6.64258 -0.761238,-0.863 -0.766277,-1.43806 0.498047,-1.57422 0.514712,-1.46245 1.307724,-2.77412 2.423828,-3.87696 0.685907,-0.61415 1.497892,-1.00259 2.335938,-1.33984 0.148863,-0.4881 0.319385,-0.96946 0.447265,-1.46289 0.364885,-1.40783 1.191404,-2.03749 1.9375,-2.03125 0.941553,0.008 1.723466,1.05028 1.306641,2.79883 0.118788,0.0253 0.233201,0.0589 0.345703,0.0937 C 90.409312,359.09257 92.576658,348.80828 94,342 c -14.339874,1.14 -26.430135,-1.51 -41,0 -14.569865,1.51 -14.439315,-14.09079 -16.779297,-25.2207 -2.329982,-11.13991 -4.440018,-22.76009 -7,-34 C 26.66073,271.53939 24.749513,259.25038 22.019531,247.98047 19.299558,236.71056 17.759739,225.32014 15.009766,213.99023 12.259784,202.66041 10.469982,190.41991 8,179 5.5300225,167.57009 2.7999748,155.93991 0,145 v 270 h 1080 c -2.04,-1.43 -5.36,-1.47 -8,-2 1.42,-8.87991 2.97,-17.75009 3,-27 16.55,6.82991 33.4805,-2.09971 32.9805,-21.01953 -0.51,-18.92982 0.2655,-38.84065 0.02,-57.98047 -0.25,-19.13982 0.13,-38.77018 0,-58 -0.13,-19.22982 0.1,-38.74018 0,-58 h 29 c 0.3,27.72973 -0.4,58.58027 0,86 0.4,27.41973 -0.76,59.73027 0,86 0.76,26.26973 -9.11,45.95009 -34,52 h 183 V 307 c -14.43,47.21955 -92.24,50.01964 -118,10 7.02,-5.98991 14.79,-11.30009 21,-18 7.98,6.30991 13.3393,10.77047 23.0293,14.98047 9.68,4.19991 21.4812,2.72 31.2012,-0.75 9.72,-3.47 15.94,-14.76103 9,-23.46094 -6.94,-8.69991 -16.4004,-9.48961 -25.9004,-12.09961 -9.5,-2.6 -20.9906,-4.82954 -29.5606,-9.43945 -8.57,-4.61 -15.929,-9.01103 -19.539,-18.46094 -3.61,-9.44991 -3.7208,-22.39993 -0.3008,-31.83984 3.41,-9.44991 9.1408,-14.78931 17.3008,-20.69922 8.16,-5.91 19.6695,-8.20047 29.7695,-9.23047 10.1,-1.03 23.4497,-0.7996 32.6797,3.32031 9.23,4.12 16.1603,6.78978 22.5703,15.42969 6.41,8.64991 -7.2092,12.40087 -13.9492,18.55078 -6.74,6.16 -13.5709,-5.2507 -22.3809,-8.2207 -8.81,-2.98 -23.5499,-3.66999 -31.6699,3.16992 -8.11,6.83991 -6.74,17.65009 2,23.5 8.74,5.84991 18.9595,6.93047 28.7695,9.23047 9.81,2.29 18.92,5.38008 27.67,10.33008 C 1278.4446,268.25046 1283.21,277.45009 1286,286 V 0 Z m 760,103 h 29 v 237 h -29 z m 362.1562,13.49414 c 1.5421,-0.005 3.1588,0.15711 4.8438,0.50586 26.09,5.39991 18.21,47.27991 -9,42 -25.5093,-4.95 -18.9739,-42.43709 4.1562,-42.50586 z M 402,118 h 161 c 2.21,14.85991 0.11038,32.11056 -9.76953,42.23047 -9.87991,10.11991 -14.54056,19.81962 -22.98047,30.01953 -8.44991,10.18991 -15.12009,19.81009 -23,30 -7.88991,10.17991 -15.07009,19.99009 -23,30 -7.93991,10.00991 -14.77087,20.40931 -22.55078,30.44922 C 453.90931,290.73913 445.97991,300.50009 439,311 h 126 v 29 H 398 c -2.9,-15.15982 0.94962,-32.00056 10.76953,-42.23047 9.81991,-10.22991 14.56009,-19.77009 23,-30 8.43991,-10.22991 15.14056,-19.79962 22.98047,-30.01953 7.84991,-10.20991 15.35009,-19.83009 23,-30 7.65991,-10.16991 15.21009,-19.96009 23,-30 C 508.53991,167.72009 516.10009,157.37991 523,147 H 402 Z m 500.95703,68.66211 c 2.66055,-0.0339 5.34422,0.0766 8.04297,0.33789 42.57964,4.12 75.52,39.97036 73,84 -2.52,44.02964 -41.55036,75.37 -85,73 -43.44964,-2.37 -75.5,-41.37036 -73,-84 2.34375,-39.96527 37.04919,-72.83021 76.95703,-73.33789 z m -242.21094,0.35351 C 664.19183,187.16916 667.62,187.49875 671,188 c 27.03973,4.01 48.09,23.10027 47,53 -1.09,29.89973 0.04,68.74027 1,99 h -26 c -1.22,-6.75991 -0.12,-14.80009 -2,-21 -15.74982,26.11973 -51.99065,30.76038 -78.23047,19.23047 C 586.5398,326.69056 577.88018,287.12982 600.75,266.75 623.61982,246.37018 660.05027,247.13 690,247 c 4.92,-42.87964 -55.25018,-45.02973 -76,-19 -6.48991,-5.01991 -11.56009,-12.03 -18,-17 15.62732,-17.51732 40.62616,-25.05904 64.74609,-23.98438 z m 381.44341,112.44532 c 1.5389,0.0208 3.1449,0.19406 4.8105,0.53906 26.14,5.40991 15.3393,49.68061 -11.2207,41.2207 -24.9,-7.93116 -16.6743,-42.07155 6.4102,-41.75976 z m -768.627,14.99218 c -0.49583,0.13436 -0.99126,0.27014 -1.48828,0.4004 -0.20629,0.0582 -0.41296,0.11688 -0.61914,0.17578 0.90563,-0.0452 1.81255,-0.0452 2.71875,-0.0742 -0.2591,-0.13705 -0.46291,-0.30977 -0.61133,-0.50196 z M 82.107422,376.68555 c -0.331395,1.72938 -0.631851,3.46495 -1.009766,5.18554 -0.379436,2.18124 -0.810128,4.3543 -1.134765,6.54493 0.621222,-1.43664 1.30492,-3.01741 1.878906,-4.38672 0.217711,-0.51938 0.436182,-1.03988 0.650391,-1.5625 -0.01593,-0.2358 -0.07084,-0.4672 -0.08398,-0.70313 -0.07493,-1.61509 -0.09694,-3.23309 -0.115234,-4.84961 7.65e-4,-0.0604 0.01538,-0.1195 0.01758,-0.17968 -0.0677,-0.0161 -0.135046,-0.0328 -0.203125,-0.0488 z m -1.25,18.18554 c -0.477198,0.0911 -0.353677,0.20279 -0.08398,0.44141 0.03229,-0.1466 0.05629,-0.29409 0.08398,-0.44141 z" />
  </g>
  <g
     fill="#0798FF"
     fill-opacity="0.99"
     stroke="None"
     id="g14">
    <path
       id="path14"
       d="M 309.01953,99.019531 C 296.80962,98.66954 285.91991,102.82 274,103 c -11.90991,0.19 -22.37009,3.07 -34,4 -11.62991,0.93 -23.20939,1.9507 -34.7793,3.2207 -11.56991,1.27 -23.54126,2.92883 -35.20117,3.79883 C 158.36962,114.89953 147.59991,117.19 136,118 c -11.58991,0.82 -22.56009,2.56 -34,4 -11.439901,1.44 -24.429396,1.5407 -35.779297,3.2207 -11.349901,1.68 -23.001045,2.26907 -34.210937,3.78907 C 20.799865,130.52968 9.8099118,129.70009 0,135 v 10 c 2.7999748,10.93991 5.5300225,22.57009 8,34 2.469982,11.41991 4.259784,23.66041 7.009766,34.99023 2.749973,11.32991 4.289792,22.72033 7.009765,33.99024 2.729982,11.26991 4.641199,23.55892 7.201172,34.79883 2.559982,11.23991 4.670018,22.86009 7,34 C 38.560685,327.90921 38.430135,343.51 53,342 c 14.569865,-1.51 26.660126,1.14 41,0 -1.385346,6.62654 -3.5114,17.20241 -5.496094,25.29883 1.748012,0.6046 2.746513,2.34145 3.734375,4.06055 0.847639,1.78059 1.731474,3.65898 1.746094,5.67382 0.0035,0.48096 -0.07353,0.95983 -0.109375,1.43946 -0.331651,2.40643 -1.302413,4.63298 -2.197266,6.86718 -0.688929,1.45932 -1.147458,2.98989 -1.560546,4.54297 -0.583202,2.26501 -0.819314,4.59807 -1.044922,6.91992 -0.09488,1.05257 -0.16419,2.10712 -0.222657,3.16211 0.05076,0.004 0.08881,0.0224 0.140625,0.0254 10.39991,0.62 15.469856,-11.43023 23.759766,-15.24023 8.28991,-3.8 13.36001,-12.04008 21.16992,-16.83008 7.80991,-4.79991 14.13017,-10.76001 21.83008,-16.16992 7.69991,-5.40991 13.97009,-11.49009 22,-17 8.03991,-5.49991 12.75009,-10.64009 21.5,-16.5 8.74991,-5.85991 21.38009,-5.24 33.75,-4.25 10.34877,0.82824 21.17226,-1.29447 32.38867,-0.68164 0.27848,-0.15016 0.60147,-0.2792 0.97461,-0.375 1.60721,-0.41265 3.20375,-0.86987 4.80078,-1.32031 2.11019,-0.55304 4.20917,-1.14668 6.32032,-1.69727 1.71821,-0.47076 3.48037,-0.68777 5.25585,-0.76367 0.2078,-0.012 0.41452,-0.0198 0.6211,-0.0215 1.44605,-0.0114 2.8638,0.22175 4.26953,0.56641 0.13565,0.0436 0.26905,0.0938 0.4043,0.13867 2.76422,-3.18361 4.10159,-7.90605 3.96484,-13.8457 -0.3,-13.01991 3.4507,-21.77939 4.2207,-33.7793 0.77,-11.99982 3.87907,-22.64111 4.78907,-34.21093 0.89991,-11.56991 3.38015,-22.26994 4.66015,-33.33985 1.28,-11.06991 3.20961,-24.12048 4.34961,-34.65039 C 311.16953,149.4996 313.86,136.29991 315,127 c 1.14,-9.29991 6.23944,-27.630469 -5.98047,-27.980469 z" />
  </g>
  <g
     fill="#FFFFFF"
     fill-opacity="0.97"
     stroke="None"
     id="g15">
    <path
       d=" M 789.00 103.00  C 779.33 103.00 769.67 103.00 760.00 103.00 C 760.00 182.00 760.00 261.00 760.00 340.00 C 769.67 340.00 779.33 340.00 789.00 340.00 C 789.00 261.00 789.00 182.00 789.00 103.00 Z"
       id="path15" />
  </g>
  <g
     fill="#FFFFFF"
     fill-opacity="0.95"
     stroke="None"
     id="g16">
    <path
       d=" M 1127.00 117.00  C 1100.04 111.42 1090.79 153.72 1118.00 159.00 C 1145.21 164.28 1153.09 122.40 1127.00 117.00 Z"
       id="path16" />
  </g>
  <g
     fill="#FFFFFF"
     fill-opacity="0.96"
     stroke="None"
     id="g17">
    <path
       d=" M 563.00 118.00  C 509.34 118.00 455.66 118.00 402.00 118.00 C 402.00 127.67 402.00 137.33 402.00 147.00 C 442.33 147.00 482.67 147.00 523.00 147.00 C 516.10 157.38 508.54 167.72 500.75 177.75 C 492.96 187.79 485.41 197.58 477.75 207.75 C 470.10 217.92 462.60 227.54 454.75 237.75 C 446.91 247.97 440.21 257.54 431.77 267.77 C 423.33 278.00 418.59 287.54 408.77 297.77 C 398.95 308.00 395.10 324.84 398.00 340.00 C 453.67 340.00 509.33 340.00 565.00 340.00 C 565.00 330.33 565.00 320.67 565.00 311.00 C 523.00 311.00 481.00 311.00 439.00 311.00 C 445.98 300.50 453.91 290.74 461.70 280.70 C 469.48 270.66 476.31 260.26 484.25 250.25 C 492.18 240.24 499.36 230.43 507.25 220.25 C 515.13 210.06 521.80 200.44 530.25 190.25 C 538.69 180.05 543.35 170.35 553.23 160.23 C 563.11 150.11 565.21 132.86 563.00 118.00 Z"
       id="path17" />
  </g>
  <g
     fill="#FFFFFF"
     fill-opacity="0.95"
     stroke="None"
     id="g18">
    <path
       d=" M 719.00 340.00  C 718.04 309.74 716.91 270.90 718.00 241.00 C 719.09 211.10 698.04 192.01 671.00 188.00 C 643.96 183.99 613.86 190.98 596.00 211.00 C 602.44 215.97 607.51 222.98 614.00 228.00 C 634.75 201.97 694.92 204.12 690.00 247.00 C 660.05 247.13 623.62 246.37 600.75 266.75 C 577.88 287.13 586.54 326.69 612.77 338.23 C 639.01 349.76 675.25 345.12 691.00 319.00 C 692.88 325.20 691.78 333.24 693.00 340.00 C 701.67 340.00 710.33 340.00 719.00 340.00 M 690.00 269.00  C 694.86 294.33 679.81 312.66 657.93 319.93 C 636.05 327.19 604.87 306.05 621.30 284.30 C 637.74 262.56 667.27 272.72 690.00 269.00 Z"
       id="path18" />
  </g>
  <g
     fill="#FFFFFF"
     fill-opacity="0.96"
     stroke="None"
     id="g19">
    <path
       d=" M 911.00 187.00  C 867.82 182.82 828.50 217.37 826.00 260.00 C 823.50 302.63 855.55 341.63 899.00 344.00 C 942.45 346.37 981.48 315.03 984.00 271.00 C 986.52 226.97 953.58 191.12 911.00 187.00 M 915.00 215.00  C 951.54 220.93 964.45 271.13 942.75 298.75 C 921.05 326.37 872.30 322.28 860.07 285.93 C 847.84 249.57 872.18 208.05 915.00 215.00 Z"
       id="path19" />
  </g>
  <g
     fill="#FFFFFF"
     fill-opacity="0.96"
     stroke="None"
     id="g20">
    <path
       d=" M 1286.00 307.00  L 1286.00 286.00 C 1283.21 277.45 1278.45 268.25 1269.69 263.31 C 1260.94 258.36 1251.83 255.27 1242.02 252.98 C 1232.21 250.68 1221.99 249.60 1213.25 243.75 C 1204.51 237.90 1203.14 227.09 1211.25 220.25 C 1219.37 213.41 1234.11 214.10 1242.92 217.08 C 1251.73 220.05 1258.56 231.46 1265.30 225.30 C 1272.04 219.15 1285.66 215.40 1279.25 206.75 C 1272.84 198.11 1265.91 195.44 1256.68 191.32 C 1247.45 187.20 1234.10 186.97 1224.00 188.00 C 1213.90 189.03 1202.39 191.32 1194.23 197.23 C 1186.07 203.14 1180.34 208.48 1176.93 217.93 C 1173.51 227.37 1173.62 240.32 1177.23 249.77 C 1180.84 259.22 1188.20 263.62 1196.77 268.23 C 1205.34 272.84 1216.83 275.07 1226.33 277.67 C 1235.83 280.28 1245.29 281.07 1252.23 289.77 C 1259.17 298.47 1252.95 309.76 1243.23 313.23 C 1233.51 316.70 1221.71 318.18 1212.03 313.98 C 1202.34 309.77 1196.98 305.31 1189.00 299.00 C 1182.79 305.70 1175.02 311.01 1168.00 317.00 C 1193.76 357.02 1271.57 354.22 1286.00 307.00 Z"
       id="path20" />
  </g>
  <g
     fill="#FFFFFF"
     fill-opacity="0.96"
     stroke="None"
     id="g21">
    <path
       d=" M 1080.00 415.00  L 1103.00 415.00 C 1127.89 408.95 1137.76 389.27 1137.00 363.00 C 1136.24 336.73 1137.40 304.42 1137.00 277.00 C 1136.60 249.58 1137.30 218.73 1137.00 191.00 C 1127.33 191.00 1117.67 191.00 1108.00 191.00 C 1108.10 210.26 1107.87 229.77 1108.00 249.00 C 1108.13 268.23 1107.75 287.86 1108.00 307.00 C 1108.25 326.14 1107.47 346.05 1107.98 364.98 C 1108.48 383.90 1091.55 392.83 1075.00 386.00 C 1074.97 395.25 1073.42 404.12 1072.00 413.00 C 1074.64 413.53 1077.96 413.57 1080.00 415.00 Z"
       id="path21" />
  </g>
  <g
     fill="#000000"
     fill-opacity="0.00"
     stroke="None"
     id="g22">
    <path
       d=" M 915.00 215.00  C 872.18 208.05 847.84 249.57 860.07 285.93 C 872.30 322.28 921.05 326.37 942.75 298.75 C 964.45 271.13 951.54 220.93 915.00 215.00 Z"
       id="path22" />
  </g>
  <g
     fill="#000000"
     fill-opacity="0.00"
     stroke="None"
     id="g23">
    <path
       d=" M 690.00 269.00  C 667.27 272.72 637.74 262.56 621.30 284.30 C 604.87 306.05 636.05 327.19 657.93 319.93 C 679.81 312.66 694.86 294.33 690.00 269.00 Z"
       id="path23" />
  </g>
  <g
     fill="#FFFFFF"
     fill-opacity="0.95"
     stroke="None"
     id="g24">
    <path
       d=" M 1047.00 300.00  C 1020.35 294.48 1009.22 332.76 1035.78 341.22 C 1062.34 349.68 1073.14 305.41 1047.00 300.00 Z"
       id="path24" />
  </g>
  <path
     id="path31"
     style="fill:#0698ff;fill-opacity:0.992157"
     d="m 320.01562,96.373047 -308.263667,32.572263 -12.423828,4.70117 41.638672,208.86719 47.011719,-0.67187 0.126953,23.80859 c 0.08088,0.35363 0.09533,0.77299 0.0078,1.25586 l 0.002,0.28125 c 1.992066,0.46772 3.064485,2.32975 4.123047,4.17188 0.84764,1.7806 1.731474,3.65897 1.746094,5.67382 0.0035,0.48096 -0.07353,0.95983 -0.109375,1.43946 -0.331651,2.40644 -1.302412,4.63297 -2.197266,6.86718 -0.68893,1.45932 -1.147457,2.98989 -1.560546,4.54297 -0.583202,2.26501 -0.819313,4.59806 -1.044922,6.91992 -0.165459,1.83566 -0.262272,3.6762 -0.333985,5.51758 0.256506,0.70683 0.330767,1.35071 0.185547,1.83203 l 111.546872,-88.50195 64.32422,-1.92187 c 0.36842,-0.32826 0.8884,-0.61058 1.56836,-0.78516 1.60721,-0.41265 3.20375,-0.86987 4.80078,-1.32031 2.11019,-0.55304 4.20917,-1.14668 6.32032,-1.69727 1.71823,-0.47076 3.48035,-0.68777 5.25585,-0.76367 0.2078,-0.012 0.41452,-0.0198 0.6211,-0.0215 1.44605,-0.0114 2.8638,0.22175 4.26953,0.56641 0.92093,0.29616 1.82771,0.63403 2.73242,0.97852 0.13977,-0.0184 0.28001,-0.0335 0.41992,-0.0508 z" />
  <path
     style="fill:#0698ff;fill-opacity:0.992157"
     d="M 88.804284,341.92024 88.329394,404.13072 200.40325,316.75111 290.6322,312.00222 320.55022,94.977843 -1.8995569,129.64476 41.315362,342.87001 Z"
     id="path48" />
  <path
     style="fill:#0698ff;fill-opacity:0.992157"
     d="m 87.30732,404.46795 0.167899,-60.77933 -46.17214,0.1679 L 0.50369608,146.07186 0,128.1067 321.0223,94.023268 290.96844,312.96316 201.31053,317.49643 88.986307,405.47534 c 0,0 -1.343189,-4.86906 -1.678987,-1.00739 z"
     id="path49" />
  <path
     style="fill:#0698ff;fill-opacity:0.992157"
     d="m 87.30732,396.24092 0.167899,10.57761 13.599791,-11.08131 z"
     id="path50" />
</svg>
