<svg xmlns="http://www.w3.org/2000/svg" width="422" height="250" viewBox="0 0 422 250"><path d="M255.05 38.14c-3.951.938-4.231 1.181-2.5 2.162 1.213.688 8.938 1.137 20.45 1.189 20.421.092 25.873.943 46.252 7.219 11.104 3.419 15.442 3.733 11.473.831-2.222-1.625-20.566-7.019-32.895-9.672-10.928-2.352-35.902-3.361-42.78-1.729m-11.435 4.948C240.273 45.717 238 50.049 238 53.791c0 8.492 12.168 23.187 27.804 33.58 8.11 5.39 26.997 15.574 28.946 15.608 3.482.059.4-2.96-6.5-6.368-22.633-11.178-38.997-25.867-42.351-38.016-1.245-4.509.744-9.532 5.03-12.701l3.113-2.301-2.271-1.261c-3.24-1.799-5.131-1.624-8.156.756m92.407 10.054c.012.747 4.755 3.572 10.541 6.277 13.944 6.522 27.225 15.226 35.718 23.41C388.743 89.056 394 96.956 394 100.441c0 1.484 4.776 4.559 7.081 4.559 2.202 0 .097-7.224-3.72-12.766-7.627-11.074-23.231-22.838-44.001-33.173-13.328-6.633-17.372-8.013-17.338-5.919m-16.389 53.195c-3.399 8.133-3.739 7.663 5.55 7.661l8.317-.002 2.158-5.498 2.158-5.498h-16.789zm73.293 1.096-1.575 3.368 4.053.648c3.201.512 4.319.282 5.324-1.092 1.833-2.507 1.618-3.127-1.678-4.831-3.992-2.064-4.315-1.964-6.124 1.907m-87.477 34.317L295.5 166.5l-4.023.296c-3.896.287-4.094.479-6.25 6.04-1.225 3.159-2.227 6.106-2.227 6.55s4.163.651 9.25.461c10.999-.413 14.395-2.24 18.233-9.813 1.882-3.715 11.043-26.053 21.236-51.784.372-.94-1.589-1.25-7.913-1.25h-8.408zm43.129-23.265c-5.694 2.029-9.049 5.995-12.515 14.791-3.766 9.56-3.836 11.97-.428 14.651 2.258 1.776 4.035 2.073 12.418 2.073 5.381 0 10.495.273 11.365.607 2.1.806 2.001 2.703-.247 4.738-1.537 1.391-4.313 1.655-17.394 1.655h-15.565l-2.502 6.25-2.501 6.25 19.145.302c11.67.183 20.593-.12 22.851-.777 7.425-2.161 11.523-7.343 15.764-19.933 3.592-10.663 1.699-12.092-16.016-12.092-11.17 0-11.953-.127-11.953-1.943 0-4.14 3.455-5.057 19.054-5.057h14.61l2.579-6.5 2.579-6.5-18.661.044c-13.344.031-19.779.442-22.583 1.441M260.09 155.25c-.473 1.238-2.006 5.063-3.405 8.5L254.14 170h3.711c3.622 0 3.799-.18 7.43-7.517 2.045-4.134 3.719-7.959 3.719-8.5 0-.54-1.811-.983-4.025-.983-3.252 0-4.19.432-4.885 2.25" fill="#2b2c2c" fill-rule="evenodd"/><path d="M342.25 32.921C336.613 42.197 332 50.285 332 50.893S331.643 52 331.208 52s-2.457 2.812-4.492 6.25-4.078 6.83-4.541 7.539c-.644.987-7.731-1.438-30.258-10.353-16.179-6.404-31.667-12.463-34.417-13.466s-12.852-5.014-22.448-8.914-17.836-6.961-18.308-6.804 6.479 3.577 15.448 7.6 19.458 8.849 23.308 10.726 19.15 9.02 34 15.875c14.85 6.854 26.918 12.839 26.818 13.3s-13.075 24.87-28.834 54.241c-33.437 62.323-34.246 63.883-32.259 62.234.823-.683 16.697-26.584 35.274-57.557l33.777-56.315 35.612 13.943c19.587 7.669 38.652 15.276 42.368 16.904s7.292 2.781 7.946 2.563-1.936-1.643-5.756-3.167-8.296-3.569-9.946-4.545-17.238-8.422-34.64-16.547l-31.641-14.772 4.087-8.617c2.247-4.74 8.048-16.78 12.89-26.756 4.842-9.977 8.804-18.414 8.804-18.75 0-2.315-2.757 1.512-11.75 16.309m-158.824 67.844c-.868.594-10.717 24.544-26.533 64.524l-1.895 4.789 8.602-.289 8.602-.289L185.61 136c7.374-18.425 13.192-34.062 12.93-34.75-.524-1.373-13.22-1.781-15.114-.485m-134.181 6.024C48.01 109.974 47 113.114 47 113.767c0 .866 5.042 1.263 18.554 1.461l18.554.272L56.123 136c-15.391 11.275-28.185 21.175-28.43 22s-1.396 3.863-2.555 6.75L23.029 170H84.51l2.245-5.789c1.235-3.185 2.245-6.325 2.245-6.978 0-.866-5.081-1.263-18.725-1.461L51.55 155.5l26.106-18.755c14.359-10.315 26.539-19.315 27.068-20 .913-1.181 6.276-14.219 6.276-15.256 0-.269-13.39-.489-29.755-.489H51.49zm62.895 14.39c-1.018 2.376-2.167 5.322-2.555 6.547l-.704 2.225 16.809.275c16.052.262 16.81.364 16.81 2.274 0 1.882-.852 2.033-14.5 2.556-15.612.6-18.217 1.342-23.175 6.605-3.303 3.506-8.825 17.173-8.825 21.842 0 6.206 1.584 6.574 26.959 6.267l22.251-.27 7.954-19.909c8.682-21.731 9.598-26.272 6.023-29.85-2.157-2.16-3.017-2.253-23.718-2.562l-21.479-.321zm98.497-2.755c-7.691 2.823-11.055 7.623-18.741 26.744-5.179 12.885-5.989 16.268-4.747 19.83 1.61 4.619 4.662 5.195 25.576 4.831 18.721-.325 18.973-.359 23.077-3.077 2.282-1.512 4.904-3.9 5.826-5.307 2.036-3.107 11.956-27.185 13.381-32.479 1.187-4.408.072-7.762-3.33-10.02-3.171-2.104-35.607-2.517-41.042-.522m6.201 12.659c-1.464.564-3.34 2.463-4.169 4.221-3.72 7.885-7.722 19.116-7.25 20.346.817 2.128 19.331 1.886 21.729-.284 2.84-2.57 10.251-22.367 8.885-23.733-1.463-1.463-15.759-1.872-19.195-.55m-100.71 18.262c-.614.74-1.403 2.782-1.754 4.537l-.639 3.191 10.289-.287 10.289-.286 1.802-4.25 1.803-4.25h-10.337c-7.439 0-10.649.377-11.453 1.345" fill="#148bfb" fill-rule="evenodd"/></svg>